<svg width="136" height="40" viewBox="0 0 136 40" fill="none" xmlns="http://www.w3.org/2000/svg">
<path d="M31.8992 0C31.7204 0.237233 31.5695 0.500284 31.3609 0.707862C23.202 8.83818 15.04 16.9644 6.87468 25.0864C6.68724 25.2777 6.49017 25.4461 6.21238 25.6967L0 19.7841V19.3239C0.210508 19.1718 0.445026 19.0446 0.627659 18.8638C6.74104 12.7889 12.8503 6.70915 18.9553 0.62464C19.137 0.442889 19.2649 0.209492 19.4177 0H31.8992Z" fill="white"/>
<path d="M19.4158 39.108C18.8535 38.4929 18.3142 37.8539 17.725 37.2647C14.8759 34.415 12.0134 31.5787 9.099 28.6813C9.31527 28.4191 9.48348 28.179 9.68629 27.9753C12.8404 24.83 16.0009 21.6912 19.1678 18.5587C19.4639 18.2717 19.9233 17.9752 20.3097 17.9704C24.1546 17.9273 28.0043 17.9446 31.8137 17.9446C28.3215 21.4103 24.8352 24.8721 21.295 28.3866C24.7554 31.8303 27.9399 34.987 31.1158 38.1562C31.4042 38.4432 31.6387 38.7895 31.8992 39.1128L19.4158 39.108Z" fill="white"/>
<path d="M135.461 17.7138C135.235 17.6936 135.011 17.6598 134.789 17.6125C131.528 16.7334 128.804 18.7508 128.767 22.1237C128.733 25.1389 128.759 28.1502 128.759 31.2476H126.045V15.1368H128.579C128.618 15.8303 128.654 16.4913 128.675 16.9543C129.684 16.2589 130.656 15.4114 131.778 14.8661C132.945 14.2998 134.244 14.3725 135.458 14.9541L135.461 17.7138Z" fill="white"/>
<path d="M111.36 23.7338C111.418 26.4122 112.767 28.3139 115.02 29.0686C117.503 29.8999 119.433 29.1538 121.612 26.4792C121.972 26.6351 122.355 26.7891 122.727 26.968C123.099 27.1469 123.461 27.3506 123.901 27.5859C122.443 30.2385 120.29 31.6782 117.329 31.8494C114.117 32.035 111.455 30.933 109.799 28.1188C107.896 24.8874 107.942 21.5183 109.807 18.2832C111.69 15.0164 115.388 13.7566 119.116 14.9399C122.341 15.9634 124.508 19.3899 124.263 22.9561C124.207 23.7778 123.756 23.7405 123.19 23.7386C119.686 23.7322 116.183 23.7322 112.68 23.7386L111.36 23.7338ZM121.236 21.372C120.961 18.6821 119.047 17.0071 116.343 17.0377C113.871 17.0664 111.752 18.9977 111.601 21.372H121.236Z" fill="white"/>
<path d="M48.1525 8.57666H61.3212V11.0504H50.8968V18.8351H60.2677V21.459H50.8526V31.2534H48.1563L48.1525 8.57666Z" fill="white"/>
<path d="M81.2533 15.1196H83.9303V31.2515H81.4023V29.035C79.6385 31.2113 77.5959 32.0961 75.0659 31.8091C72.2486 31.4896 70.2329 29.7649 70.0906 26.964C69.8916 23.0736 70.0406 19.166 70.0406 15.1675H72.6359C72.658 15.5501 72.6994 15.9557 72.7003 16.3594C72.7061 19.1181 72.7003 21.8769 72.7003 24.6357C72.71 27.7131 73.8932 29.2273 76.3693 29.366C78.733 29.4961 80.9496 27.6078 81.137 24.9916C81.3293 22.3227 81.2264 19.6347 81.2504 16.9563C81.2572 16.389 81.2533 15.8151 81.2533 15.1196Z" fill="white"/>
<path d="M89.2285 17.5159H86.49V15.068H89.2372V10.5386H91.968V15.0403H95.8715V17.4872H92.0026C92.0026 19.3258 92.0026 21.0352 92.0026 22.7484C92.0026 24.0513 91.9738 25.3551 92.0228 26.6561C92.1084 28.9174 93.3012 29.7238 95.4755 29.0408C95.6553 28.9844 95.8388 28.9452 96.0186 28.8925C96.0589 28.9694 96.0893 29.0511 96.109 29.1355C96.2762 31.6877 95.8206 32.1162 93.2253 31.8379C90.7549 31.5719 89.2843 29.9553 89.241 27.3285C89.1949 24.5315 89.2295 21.7335 89.2285 18.9364V17.5159Z" fill="white"/>
<path d="M100.354 17.515H97.7507V15.068H100.519V10.5405H103.244V15.0183H107.185V17.5178H103.292C103.292 19.7429 103.292 21.8387 103.292 23.9346C103.292 24.8912 103.269 25.8478 103.305 26.8044C103.382 28.8486 104.572 29.6846 106.548 29.1107C106.766 29.0475 106.981 28.9739 107.368 28.8505C107.368 29.6081 107.436 30.294 107.335 30.955C107.293 31.2343 106.931 31.6246 106.653 31.6868C103.104 32.4597 100.426 30.6077 100.501 27.2061C100.57 24.1058 100.501 21.0017 100.492 17.8995C100.492 17.8316 100.444 17.7618 100.354 17.515Z" fill="white"/>
<path d="M64.1954 31.2258V8.58252H66.8244V31.2258H64.1954Z" fill="white"/>
</svg>
