<?xml version="1.0" encoding="UTF-8" standalone="no" ?>
<!DOCTYPE svg PUBLIC "-//W3C//DTD SVG 1.1//EN" "http://www.w3.org/Graphics/SVG/1.1/DTD/svg11.dtd">
<svg xmlns="http://www.w3.org/2000/svg" xmlns:xlink="http://www.w3.org/1999/xlink" version="1.1" width="1080" height="400" viewBox="0 0 1080 400" xml:space="preserve">
<desc>Created with Fabric.js 5.2.4</desc>
<defs>
</defs>
<g transform="matrix(1 0 0 1 540 200)" id="3e1178e1-ff3d-4a53-8ea2-f4fe1e1ac9ba"  >
<rect style="stroke: none; stroke-width: 1; stroke-dasharray: none; stroke-linecap: butt; stroke-dashoffset: 0; stroke-linejoin: miter; stroke-miterlimit: 4; fill: rgb(255,255,255); fill-rule: nonzero; opacity: 1; visibility: hidden;" vector-effect="non-scaling-stroke"  x="-540" y="-200" rx="0" ry="0" width="1080" height="400" />
</g>
<g transform="matrix(Infinity NaN NaN Infinity 0 0)" id="1b02d149-464f-406a-af8d-3a4854933f86"  >
</g>
<g transform="matrix(2.05 0 0 2.05 540 200)"  >
<g style="" vector-effect="non-scaling-stroke"   >
		<g transform="matrix(1 0 0 1 -172.41 0)"  >
<path style="stroke: none; stroke-width: 1; stroke-dasharray: none; stroke-linecap: butt; stroke-dashoffset: 0; stroke-linejoin: miter; stroke-miterlimit: 4; fill: rgb(255,255,255); fill-rule: nonzero; opacity: 1;" vector-effect="non-scaling-stroke"  transform=" translate(47.49, -81.32)" d="M 0 0 C 1.94683167 1.3535367 3.9126321 2.67697081 5.87866211 4.00244141 C 11.95250104 8.1113176 17.94733775 12.34077227 23.9375 16.5703125 C 25.80683168 17.86609923 27.7046107 19.09447531 29.625 20.3125 C 30.40875 20.869375 31.1925 21.42625 32 22 C 32 22.66 32 23.32 32 24 C 32.99 24.33 33.98 24.66 35 25 C 37.19192391 28.28788586 37.25210235 29.25111112 37.26069641 33.06587219 C 37.26778122 34.11309448 37.27486603 35.16031677 37.28216553 36.23927307 C 37.27968811 37.38790329 37.27721069 38.53653351 37.2746582 39.7199707 C 37.27976913 40.92996735 37.28488007 42.13996399 37.29014587 43.3866272 C 37.30167763 46.70707668 37.30411311 50.0272768 37.30158257 53.34772897 C 37.30051318 56.12094959 37.30539564 58.89414718 37.310188 61.66736287 C 37.32128804 68.21242283 37.32171843 74.75742541 37.31567383 81.30249023 C 37.30963869 88.04909312 37.32193206 94.79548721 37.3432439 101.54205447 C 37.36087649 107.33750337 37.36685848 113.13288592 37.36360615 118.92836064 C 37.36179508 122.38823983 37.36441131 125.84797023 37.37832069 129.30782509 C 37.39326282 133.16924812 37.38391435 137.03040684 37.37231445 140.8918457 C 37.37995819 142.03440323 37.38760193 143.17696075 37.39547729 144.35414124 C 37.35753305 150.06490038 37.17777415 154.17277394 34 159 C 33.34 159 32.68 159 32 159 C 32 159.66 32 160.32 32 161 C 20.33845292 163.1866263 8.63688451 163.772395 -3.1875 164.4375 C -5.33458613 164.56235615 -7.48163969 164.68777371 -9.62866211 164.8137207 C -12.97936256 165.00996402 -16.33009524 165.20548829 -19.6809845 165.39848328 C -27.71338248 165.86147409 -35.74362232 166.35371588 -43.7734375 166.859375 C -47.12307387 167.06826681 -50.47273976 167.27667799 -53.82241821 167.4848938 C -55.9549776 167.6182453 -58.08744772 167.75303349 -60.21981812 167.88937378 C -69.82440818 168.50162274 -79.4339233 169.10969203 -89.05859375 169.26953125 C -90.26700928 169.29249268 -91.4754248 169.3154541 -92.72045898 169.33911133 C -97.77934199 168.81601236 -100.97325406 167.15551843 -104.3359375 163.37109375 C -105.34527344 161.91896484 -105.34527344 161.91896484 -106.375 160.4375 C -107.06335938 159.46683594 -107.75171875 158.49617187 -108.4609375 157.49609375 C -110 155 -110 155 -110 153 C -110.99 152.67 -111.98 152.34 -113 152 C -114.90234375 149.671875 -114.90234375 149.671875 -116.9375 146.75 C -118.97621425 143.84316272 -120.99486061 141.00623496 -123.25390625 138.265625 C -125 136 -125 136 -125 134 C -125.66 134 -126.32 134 -127 134 C -127.65357278 132.77493102 -128.29748233 131.54470484 -128.9375 130.3125 C -129.29714844 129.62800781 -129.65679687 128.94351563 -130.02734375 128.23828125 C -131.71871884 124.34608075 -132.12458101 120.52059243 -132.14044189 116.30776978 C -132.14615204 115.39386978 -132.15186218 114.47996979 -132.15774536 113.53837585 C -132.15886322 112.54811905 -132.15998108 111.55786224 -132.16113281 110.53759766 C -132.16609772 109.48497238 -132.17106262 108.43234711 -132.17617798 107.3478241 C -132.19076844 103.86989689 -132.19759585 100.39201527 -132.203125 96.9140625 C -132.20887827 94.49417113 -132.21463598 92.07427977 -132.22039795 89.65438843 C -132.23089855 84.58209013 -132.23674763 79.50980764 -132.24023438 74.4375 C -132.24572222 67.94202985 -132.26976064 61.44676899 -132.29820633 54.95136452 C -132.31683881 49.95333242 -132.32203861 44.95535073 -132.32357025 39.95728683 C -132.32659506 37.56272612 -132.33461776 35.16816626 -132.34775543 32.77363968 C -132.36483094 29.42266178 -132.36293192 26.0721953 -132.35644531 22.72119141 C -132.3656601 21.73498306 -132.37487488 20.74877472 -132.3843689 19.73268127 C -132.34576066 13.35795826 -131.82631155 7.9430505 -127.203125 3.12890625 C -116.75923181 -2.22266313 -100.86767829 -0.56566179 -89.27441406 -1.25024414 C -81.00753953 -1.73938887 -72.75173046 -2.29458231 -64.5 -3 C -63.54520752 -3.0810498 -62.59041504 -3.16209961 -61.60668945 -3.24560547 C -56.6877936 -3.66845718 -51.77130474 -4.11334965 -46.85546875 -4.5703125 C -10.05146875 -7.93777109 -10.05146875 -7.93777109 0 0 Z M -42.60107422 6.14697266 C -51.56017996 6.91421452 -60.52410769 7.48031587 -69.5 8 C -79.77807447 8.60112217 -90.0480807 9.25470842 -100.3125 10.0625 C -101.34375 10.14177734 -102.375 10.22105469 -103.4375 10.30273438 C -104.38238281 10.37943359 -105.32726562 10.45613281 -106.30078125 10.53515625 C -107.11716064 10.600979 -107.93354004 10.66680176 -108.7746582 10.73461914 C -110.92028111 10.9904932 -112.91918437 11.42568417 -115 12 C -113.50211208 15.7280766 -111.39700586 17.55868636 -108.25 20 C -107.40953125 20.66 -106.5690625 21.32 -105.703125 22 C -104.81109375 22.66 -103.9190625 23.32 -103 24 C -102.05769531 24.73605469 -101.11539063 25.47210938 -100.14453125 26.23046875 C -96.26499378 28.41361219 -93.86865633 28.4381144 -89.4375 28.3125 C -88.35178711 28.28820923 -88.35178711 28.28820923 -87.24414062 28.26342773 C -84.82794217 28.20036761 -82.41482572 28.10265926 -80 28 C -79.11070801 27.96712891 -78.22141602 27.93425781 -77.30517578 27.90039062 C -72.82717738 27.73304783 -68.35036111 27.54392291 -63.875 27.31640625 C -63.15054688 27.27974854 -62.42609375 27.24309082 -61.6796875 27.20532227 C -59.35794264 27.02742618 -57.0630765 26.780454 -54.75097656 26.50927734 C -50.20616266 25.99364369 -45.6778316 25.72846219 -41.109375 25.53515625 C -39.42186524 25.45773204 -37.73436557 25.38008742 -36.046875 25.30224609 C -35.17998047 25.26315125 -34.31308594 25.2240564 -33.41992188 25.18377686 C -18.56858008 24.50917883 -3.7756176 23.7020932 11 22 C 6.20898373 16.96886119 0.59937103 13.06345834 -5 9 C -5.58652344 8.51402344 -6.17304688 8.02804688 -6.77734375 7.52734375 C -15.42222281 1.12967463 -32.57952623 5.2854196 -42.60107422 6.14697266 Z M -9.3125 35.875 C -10.21328278 35.91979492 -11.11406555 35.96458984 -12.04214478 36.01074219 C -26.224691 36.71684135 -40.39597748 37.52860318 -54.5625 38.5078125 C -59.14087311 38.82242263 -63.71819748 39.09674517 -68.30155945 39.32318115 C -71.09339439 39.46239296 -73.88440002 39.61538903 -76.67544556 39.76953125 C -78.63675349 39.87233995 -80.59903772 39.95595754 -82.5612793 40.0390625 C -84.33112183 40.13960937 -84.33112183 40.13960937 -86.13671875 40.2421875 C -87.69459106 40.31735596 -87.69459106 40.31735596 -89.28393555 40.39404297 C -92.87579732 41.19539137 -93.84045348 41.99508551 -96 45 C -96.59806464 48.33911107 -96.52541165 51.6451094 -96.48583984 55.02929688 C -96.48963654 56.04758072 -96.49343323 57.06586456 -96.49734497 58.11500549 C -96.50475843 61.48323298 -96.48335607 64.85059908 -96.4609375 68.21875 C -96.45855345 70.55757547 -96.45764767 72.89640287 -96.4581604 75.23522949 C -96.45503101 80.13789857 -96.43845462 85.0402755 -96.41162109 89.94287109 C -96.3776413 96.23126849 -96.36999246 102.51934473 -96.37151146 108.80782318 C -96.37096792 113.63762485 -96.36000331 118.46735613 -96.34550858 123.2971344 C -96.33913849 125.61600715 -96.33520119 127.93488789 -96.33372116 130.25376892 C -96.32939048 133.49288552 -96.31189406 136.73165992 -96.29052734 139.97070312 C -96.29143372 140.93186539 -96.29234009 141.89302765 -96.29327393 142.88331604 C -96.28474396 143.76652023 -96.27621399 144.64972443 -96.26742554 145.55969238 C -96.26407385 146.32511604 -96.26072216 147.0905397 -96.25726891 147.87915802 C -95.9665039 150.27613106 -95.19005646 151.91530687 -94 154 C -76.6680285 154.2114949 -59.48372008 153.64031341 -42.1875 152.5625 C -38.7925388 152.35796082 -35.3974566 152.15551898 -32.00236511 151.95315552 C -29.79829238 151.82144956 -27.59428078 151.68871611 -25.39033508 151.55490112 C -17.80204356 151.09634637 -10.21252087 150.68972605 -2.61833191 150.3419342 C 2.78547133 150.0878181 8.17185266 149.70342458 13.5625 149.25 C 14.26791428 149.2014537 14.97332855 149.15290741 15.70011902 149.10289001 C 18.81812885 148.77051988 20.5832954 148.47708901 22.68351746 146.07252502 C 24.56850025 141.67318314 24.41051685 137.68803435 24.37231445 132.94897461 C 24.37596512 131.94029831 24.37961578 130.93162201 24.38337708 129.89237976 C 24.39147525 126.56219588 24.37787912 123.23249963 24.36328125 119.90234375 C 24.3627626 117.58736674 24.3632805 115.27238929 24.36479187 112.95741272 C 24.36470218 108.10785337 24.35427869 103.25846038 24.33618164 98.40893555 C 24.3134821 92.18895718 24.31295309 85.96922162 24.31969929 79.74921322 C 24.32303848 74.97003517 24.31641029 70.1909126 24.30657005 65.41174507 C 24.30271787 63.11798963 24.30156991 60.82422802 24.3031559 58.53046989 C 24.30352621 55.32740358 24.29091605 52.12465022 24.2746582 48.92163086 C 24.27713562 47.97139038 24.27961304 47.0211499 24.28216553 46.04211426 C 24.27508072 45.16876938 24.26799591 44.2954245 24.26069641 43.39561462 C 24.25864354 42.63886413 24.25659067 41.88211363 24.25447559 41.1024313 C 23.96541233 38.7142429 23.18456367 37.07754757 22 35 C 11.53933663 34.83464514 1.13025537 35.34555478 -9.3125 35.875 Z" stroke-linecap="round" />
</g>
		<g transform="matrix(1 0 0 1 -160.42 14.98)"  >
<path style="stroke: none; stroke-width: 1; stroke-dasharray: none; stroke-linecap: butt; stroke-dashoffset: 0; stroke-linejoin: miter; stroke-miterlimit: 4; fill: rgb(255,255,255); fill-rule: nonzero; opacity: 1;" vector-effect="non-scaling-stroke"  transform=" translate(43.5, -44.3)" d="M 0 0 C 0 1.98 0 3.96 0 6 C -5.75 9 -5.75 9 -8 9 C -8 33.75 -8 58.5 -8 84 C -14.61596014 86.83541149 -18.99478869 88.66500675 -26 87 C -33.54998657 81.85605311 -38.21438403 71.56825422 -42.86865234 63.86279297 C -44.33529493 61.44792829 -45.85001847 59.06587752 -47.375 56.6875 C -52.60940804 48.47489429 -57.79950259 40.23412089 -63 32 C -63 46.85 -63 61.7 -63 77 C -60.03 77.99 -57.06 78.98 -54 80 C -54.3125 82.375 -54.3125 82.375 -55 85 C -63.24358801 90.49572534 -77.34708998 88.09557337 -87 88 C -86.68359375 85.61328125 -86.68359375 85.61328125 -86 83 C -81.13793103 80 -81.13793103 80 -78 80 C -78 58.55 -78 37.1 -78 15 C -80.64 14.67 -83.28 14.34 -86 14 C -87 11 -87 11 -86.6875 8.4375 C -84.75652196 5.64830949 -84.30044824 5.49485823 -81.125 4.75 C -79.08764075 4.46703344 -77.04464356 4.22435569 -75 4 C -74.24138672 3.8851123 -73.48277344 3.77022461 -72.70117188 3.65185547 C -57.29607995 1.37083124 -57.29607995 1.37083124 -52.17578125 5.00390625 C -50.08043856 7.89786679 -48.53576045 10.77689754 -47 14 C -45.89738246 15.76418807 -44.77236344 17.51458013 -43.625 19.25 C -43.06039062 20.15234375 -42.49578125 21.0546875 -41.9140625 21.984375 C -39.28631744 26.12441415 -36.55486117 30.19237333 -33.81494141 34.25878906 C -30.10723738 39.78154885 -26.57585227 45.38080357 -23 51 C -22.67 37.47 -22.34 23.94 -22 10 C -24.64 10 -27.28 10 -30 10 C -29.75 6.625 -29.75 6.625 -29 3 C -26.19801506 1.08847802 -23.75203679 0.71968131 -20.41015625 0.5859375 C -19.54326172 0.54726562 -18.67636719 0.50859375 -17.78320312 0.46875 C -16.43645508 0.42234375 -16.43645508 0.42234375 -15.0625 0.375 C -13.72155273 0.31699219 -13.72155273 0.31699219 -12.35351562 0.2578125 C -8.23220691 0.08647376 -4.12524535 -0.01735791 0 0 Z" stroke-linecap="round" />
</g>
		<g transform="matrix(1 0 0 1 -23.92 21.68)"  >
<path style="stroke: none; stroke-width: 1; stroke-dasharray: none; stroke-linecap: butt; stroke-dashoffset: 0; stroke-linejoin: miter; stroke-miterlimit: 4; fill: rgb(255,255,255); fill-rule: nonzero; opacity: 1;" vector-effect="non-scaling-stroke"  transform=" translate(-28, -37)" d="M 0 0 C 5.28 0 10.56 0 16 0 C 21.93649224 10.76483926 27.85431633 21.51414814 33.25830078 32.55786133 C 35.78082332 37.67146044 38.59096008 42.57629948 41.5546875 47.44921875 C 43 50 43 50 45 55 C 45.33 36.85 45.66 18.7 46 0 C 49.3 0 52.6 0 56 0 C 56 24.42 56 48.84 56 74 C 51.71 74 47.42 74 43 74 C 38.70427552 66.49952868 34.43262668 59.01348214 30.625 51.25 C 27.29732973 44.47026056 23.67675898 37.8715083 19.99462891 31.27832031 C 16.82384744 25.5808044 13.92311397 19.84622794 11 14 C 10.67 33.8 10.34 53.6 10 74 C 6.7 74 3.4 74 0 74 C 0 49.58 0 25.16 0 0 Z" stroke-linecap="round" />
</g>
		<g transform="matrix(1 0 0 1 43.71 30.69)"  >
<path style="stroke: none; stroke-width: 1; stroke-dasharray: none; stroke-linecap: butt; stroke-dashoffset: 0; stroke-linejoin: miter; stroke-miterlimit: 4; fill: rgb(255,255,255); fill-rule: nonzero; opacity: 1;" vector-effect="non-scaling-stroke"  transform=" translate(15.12, -25.64)" d="M 0 0 C 2.32606872 1.67993852 3.75448661 3.18495183 5.25 5.625 C 5.25 6.285 5.25 6.945 5.25 7.625 C 5.91 7.625 6.57 7.625 7.25 7.625 C 12.04521524 18.46635619 12.35436996 29.66889266 8.46875 40.87890625 C 5.87131607 46.77911178 1.73816789 50.83509949 -3.98046875 53.76953125 C -7.54518603 54.87062164 -10.93105694 54.95476142 -14.625 54.9375 C -15.30691406 54.95361328 -15.98882812 54.96972656 -16.69140625 54.98632812 C -23.03213754 54.99236692 -27.4412828 53.1641448 -32.75 49.625 C -32.75 48.965 -32.75 48.305 -32.75 47.625 C -33.41 47.625 -34.07 47.625 -34.75 47.625 C -41.05800376 37.11166041 -42.9729976 25.74529825 -40.02734375 13.66015625 C -39.10049286 11.46498308 -38.09023538 9.59155453 -36.75 7.625 C -36.37617188 7.05652344 -36.00234375 6.48804687 -35.6171875 5.90234375 C -27.25549871 -5.36655472 -11.77253871 -5.88626935 0 0 Z M -22.75 6.625 C -22.75 7.285 -22.75 7.945 -22.75 8.625 C -23.6471875 8.934375 -23.6471875 8.934375 -24.5625 9.25 C -27.70224433 11.22355358 -28.37369431 13.18810179 -29.75 16.625 C -30.18958694 19.61546432 -30.21505504 22.54397009 -30.1875 25.5625 C -30.20748047 26.33529297 -30.22746094 27.10808594 -30.24804688 27.90429688 C -30.24225767 34.75292363 -28.1330553 38.80866191 -23.6875 44.0625 C -19.12489244 46.48941891 -14.80335432 46.35220811 -9.75 45.625 C -4.73979227 43.29883213 -2.73052376 40.73266653 -0.75 35.625 C 1.28545195 28.7784798 1.0989331 20.21900948 -1.75 13.625 C -4.28260497 9.8732614 -6.39476824 7.07674392 -10.75 5.625 C -16.83568662 5.39205155 -16.83568662 5.39205155 -22.75 6.625 Z" stroke-linecap="round" />
</g>
		<g transform="matrix(1 0 0 1 171.76 30.65)"  >
<path style="stroke: none; stroke-width: 1; stroke-dasharray: none; stroke-linecap: butt; stroke-dashoffset: 0; stroke-linejoin: miter; stroke-miterlimit: 4; fill: rgb(255,255,255); fill-rule: nonzero; opacity: 1;" vector-effect="non-scaling-stroke"  transform=" translate(13.32, -25.97)" d="M 0 0 C 6.6694208 4.39606587 9.85678924 9.46111373 11.7890625 17.1328125 C 13.55323204 26.63382194 13.04605438 35.89895853 8.66796875 44.66796875 C 6.84536621 47.2161976 4.99794733 48.86821301 2.5 50.75 C 1.7265625 51.34296875 0.953125 51.9359375 0.15625 52.546875 C -3.96232946 55.32243942 -7.95969771 55.21503429 -12.75 55.25 C -13.4409375 55.270625 -14.131875 55.29125 -14.84375 55.3125 C -22.028197 55.3665184 -27.7672199 53.09135361 -33 48 C -37.76496385 41.21654452 -39.38875075 34.44372667 -39.375 26.25 C -39.37628906 25.4573877 -39.37757813 24.66477539 -39.37890625 23.84814453 C -39.26671479 17.61514414 -38.08678716 12.48455933 -35 7 C -34.34 7 -33.68 7 -33 7 C -32.773125 6.4225 -32.54625 5.845 -32.3125 5.25 C -30.15196671 1.54622865 -27.24797278 -0.39123279 -23.4375 -2.25 C -15.54576451 -3.9718332 -7.15790857 -4.09685912 0 0 Z M -24.75 10.9375 C -28.28272534 15.74593172 -28.24258423 19.92177946 -28.3125 25.6875 C -28.34150391 26.46544922 -28.37050781 27.24339844 -28.40039062 28.04492188 C -28.46342268 33.85841653 -27.20922648 38.12659398 -24 43 C -20.81923665 46.08437658 -17.83749968 46.24634148 -13.5625 46.4375 C -8.61208793 46.2842571 -5.69118791 45.50662851 -2 42 C 2.72031186 35.6519944 2.11988624 26.71647353 1.875 19.125 C 0.36371941 13.72756933 -2.23331368 10.19059295 -6.875 7.0625 C -13.78166892 4.71423257 -19.90376709 5.35740897 -24.75 10.9375 Z" stroke-linecap="round" />
</g>
		<g transform="matrix(1 0 0 1 233.69 30.05)"  >
<path style="stroke: none; stroke-width: 1; stroke-dasharray: none; stroke-linecap: butt; stroke-dashoffset: 0; stroke-linejoin: miter; stroke-miterlimit: 4; fill: rgb(255,255,255); fill-rule: nonzero; opacity: 1;" vector-effect="non-scaling-stroke"  transform=" translate(16.39, -25.37)" d="M 0 0 C 4.32021613 3.4561729 6.01598977 6.65718483 7 12 C 7.24978347 15.29469683 7.23393941 18.56853046 7.1953125 21.87109375 C 7.1924826 22.793423 7.18965271 23.71575226 7.18673706 24.66603088 C 7.17560974 27.58999013 7.15051912 30.51363451 7.125 33.4375 C 7.11496057 35.42903201 7.1058364 37.42056886 7.09765625 39.41210938 C 7.07569483 44.2748595 7.04121673 49.1373765 7 54 C 3.7 54 0.4 54 -3 54 C -3.029729 52.32043213 -3.029729 52.32043213 -3.06005859 50.60693359 C -3.13637511 46.43581405 -3.2250517 42.26503153 -3.31738281 38.09423828 C -3.35556522 36.29222285 -3.39043651 34.49013399 -3.421875 32.68798828 C -3.46775963 30.09120519 -3.52571435 27.4949229 -3.5859375 24.8984375 C -3.59748871 24.0982016 -3.60903992 23.2979657 -3.62094116 22.47348022 C -3.73820203 17.986365 -4.11957724 14.15842965 -6 10 C -10.27128007 7.15247995 -13.98424401 7.37118103 -19 8 C -22.22002533 9.15899934 -25.5463759 10.5463759 -28 13 C -28.1603556 16.02807044 -28.25960448 19.03585454 -28.31640625 22.06640625 C -28.33718735 22.97502914 -28.35796844 23.88365204 -28.37937927 24.81980896 C -28.44497672 27.73395946 -28.5038068 30.64820304 -28.5625 33.5625 C -28.60567554 35.53321291 -28.64928951 37.50391626 -28.69335938 39.47460938 C -28.80066843 44.31630988 -28.90190675 49.15810437 -29 54 C -32.63 54 -36.26 54 -40 54 C -40 35.52 -40 17.04 -40 -2 C -36.7 -2 -33.4 -2 -30 -2 C -29.34 -0.68 -28.68 0.64 -28 2 C -27.46890625 1.72285156 -26.9378125 1.44570312 -26.390625 1.16015625 C -25.33101563 0.61681641 -25.33101563 0.61681641 -24.25 0.0625 C -23.55390625 -0.29714844 -22.8578125 -0.65679687 -22.140625 -1.02734375 C -14.76832138 -4.37716784 -7.03739718 -3.92470227 0 0 Z" stroke-linecap="round" />
</g>
		<g transform="matrix(1 0 0 1 94.58 23.85)"  >
<path style="stroke: none; stroke-width: 1; stroke-dasharray: none; stroke-linecap: butt; stroke-dashoffset: 0; stroke-linejoin: miter; stroke-miterlimit: 4; fill: rgb(255,255,255); fill-rule: nonzero; opacity: 1;" vector-effect="non-scaling-stroke"  transform=" translate(-11.5, -36.17)" d="M 0 0 C 3.3 0 6.6 0 10 0 C 10 4.95 10 9.9 10 15 C 16.27 15 22.54 15 29 15 C 29 17.97 29 20.94 29 24 C 22.73 24 16.46 24 10 24 C 10.09713145 28.60863188 10.19998007 33.21640518 10.31738281 37.82446289 C 10.35557409 39.39079081 10.39044394 40.95720349 10.421875 42.52368164 C 10.46774071 44.780418 10.52569769 47.03657583 10.5859375 49.29296875 C 10.59748871 49.98899704 10.60903992 50.68502533 10.62094116 51.40214539 C 10.73962749 55.34631513 11.28121304 58.43879404 13 62 C 18.44693314 62.09688221 23.63904667 62.12862175 29 61 C 29 64.3 29 67.6 29 71 C 21.50050871 72.72006681 13.14481562 73.17547361 6 70 C 6 69.34 6 68.68 6 68 C 5.01 67.67 4.02 67.34 3 67 C 0.08340228 61.70985399 -0.41580865 57.40199779 -0.29296875 51.44140625 C -0.28872391 50.65225327 -0.28447906 49.86310028 -0.28010559 49.05003357 C -0.26344452 46.55382739 -0.22581779 44.05845808 -0.1875 41.5625 C -0.17243683 39.86003778 -0.15875129 38.15756279 -0.14648438 36.45507812 C -0.1135825 32.3030678 -0.06188951 28.1516753 0 24 C -1.98 24 -3.96 24 -6 24 C -6 21.03 -6 18.06 -6 15 C -4.02 15 -2.04 15 0 15 C 0 10.05 0 5.1 0 0 Z" stroke-linecap="round" />
</g>
		<g transform="matrix(1 0 0 1 127.08 30.68)"  >
<path style="stroke: none; stroke-width: 1; stroke-dasharray: none; stroke-linecap: butt; stroke-dashoffset: 0; stroke-linejoin: miter; stroke-miterlimit: 4; fill: rgb(255,255,255); fill-rule: nonzero; opacity: 1;" vector-effect="non-scaling-stroke"  transform=" translate(-5, -28)" d="M 0 0 C 3.3 0 6.6 0 10 0 C 10 18.48 10 36.96 10 56 C 6.7 56 3.4 56 0 56 C 0 37.52 0 19.04 0 0 Z" stroke-linecap="round" />
</g>
		<g transform="matrix(1 0 0 1 127.08 -9.75)"  >
<path style="stroke: none; stroke-width: 1; stroke-dasharray: none; stroke-linecap: butt; stroke-dashoffset: 0; stroke-linejoin: miter; stroke-miterlimit: 4; fill: rgb(255,255,255); fill-rule: nonzero; opacity: 1;" vector-effect="non-scaling-stroke"  transform=" translate(-6, -5.57)" d="M 0 0 C 3.96 0 7.92 0 12 0 C 12.09765625 7.71484375 12.09765625 7.71484375 12 10 C 11 11 11 11 8.75 11.1328125 C 7.8425 11.13023438 6.935 11.12765625 6 11.125 C 4.63875 11.12886719 4.63875 11.12886719 3.25 11.1328125 C 1 11 1 11 0 10 C -0.14257189 6.66381769 -0.04228157 3.34024394 0 0 Z" stroke-linecap="round" />
</g>
</g>
</g>
</svg>