<svg width="144" height="40" viewBox="0 0 144 40" fill="none" xmlns="http://www.w3.org/2000/svg">
<path d="M28.1766 29.2865C25.7365 29.2865 23.2958 29.2865 20.8545 29.2865C20.2733 29.2865 19.9631 29.8385 20.2523 30.3522C20.3921 30.598 20.6352 30.5435 20.8535 30.5435C23.4066 30.5435 25.9596 30.5435 28.5127 30.5435C28.9272 30.5435 29.3427 30.5435 29.7573 30.5435C30.01 30.5435 30.1403 30.6392 30.1355 30.9128C30.0914 32.2004 30.2312 33.4956 30.0579 34.7785C29.8004 36.7032 28.7176 37.9937 26.9502 38.7389C26.3594 38.9832 25.7255 39.1065 25.0862 39.1015C21.8798 39.1072 18.6716 39.1149 15.4662 39.1015C13.1206 39.0919 11.2269 37.6971 10.5376 35.5065C10.4077 35.0627 10.3464 34.6017 10.3557 34.1395C10.3557 31.1267 10.3557 28.114 10.3557 25.1013C10.3546 24.4505 10.4821 23.8059 10.7306 23.2044C10.9791 22.6029 11.3439 22.0563 11.8041 21.5958C12.2643 21.1352 12.8108 20.7699 13.4124 20.5206C14.014 20.2714 14.6589 20.1431 15.3102 20.1431C18.5165 20.1431 21.7247 20.1488 24.9301 20.1431C27.6692 20.1345 29.6328 18.8641 30.8392 16.4275C31.1854 15.7248 31.3603 14.9502 31.3495 14.167C31.3389 12.8919 31.3571 11.6157 31.3389 10.3405C31.3332 9.90528 31.4835 9.74744 31.9258 9.76657C33.3102 9.83162 34.7022 9.65273 36.0809 9.87179C38.2197 10.2114 39.5275 11.72 39.9105 13.6151C39.9802 13.9904 40.0122 14.3718 40.0062 14.7534C40.0062 17.9734 40.012 21.1944 40.0062 24.4154C40.0062 25.3825 39.8272 26.3162 39.3026 27.1532C38.3586 28.6599 36.9311 29.2674 35.2164 29.2808C32.8717 29.2999 30.5251 29.2855 28.1805 29.2855L28.1766 29.2865ZM27.6692 34.7995C27.6658 34.3105 27.4705 33.8424 27.1253 33.4958C26.7802 33.1491 26.3127 32.9516 25.8234 32.9456C24.7559 32.9456 23.9335 33.7453 23.9315 34.7919C23.9315 35.8633 24.7156 36.6515 25.7908 36.6573C26.0375 36.6632 26.2828 36.6194 26.5122 36.5284C26.7415 36.4374 26.9501 36.301 27.1255 36.1276C27.3008 35.9542 27.4394 35.7471 27.5328 35.5189C27.6262 35.2907 27.6726 35.0461 27.6692 34.7995Z" fill="white"/>
<path d="M12.4646 9.78483C14.8887 9.78483 17.3138 9.76953 19.7408 9.79727C20.2913 9.80397 20.2654 9.52081 20.2683 9.14103C20.2712 8.76125 20.2683 8.48765 19.7322 8.49148C16.7977 8.51635 13.8624 8.49147 10.9241 8.51252C10.4856 8.51252 10.3392 8.40442 10.3593 7.95194C10.4148 6.72746 10.2721 5.49533 10.4291 4.27564C10.5754 3.10999 11.139 2.03665 12.0158 1.25396C12.8926 0.471275 14.0233 0.0321367 15.1989 0.0176976C18.5638 -0.00589919 21.9294 -0.00589919 25.2956 0.0176976C27.872 0.0387433 30.0405 2.20262 30.0692 4.79508C30.1036 7.92005 30.1036 11.045 30.0692 14.17C30.0376 16.8103 27.8538 18.8957 25.1692 18.9053C21.8672 18.9177 18.5632 18.9053 15.264 18.911C13.6194 18.9146 12.0434 19.5704 10.8824 20.7344C9.72147 21.8983 9.07049 23.4753 9.07252 25.1186C9.07252 26.3615 9.07252 27.6052 9.07252 28.8494C9.07252 29.0646 9.08879 29.2856 8.77572 29.2799C7.40473 29.256 6.02608 29.3851 4.66371 29.2235C2.1965 28.9365 0.525833 27.095 0.493282 24.603C0.450199 21.2404 0.454021 17.8769 0.485615 14.5144C0.507635 12.2013 1.6345 10.7309 3.82503 10.001C4.34298 9.82884 4.88774 9.79344 5.42962 9.79248C7.77525 9.78866 10.1202 9.78866 12.4646 9.79248V9.78483ZM14.7212 2.40351C13.6374 2.38916 12.7767 3.20612 12.7729 4.25554C12.7681 5.26669 13.6345 6.12383 14.6608 6.13339C15.669 6.14296 16.5393 5.30974 16.5594 4.31581C16.5648 4.06933 16.5216 3.8242 16.4321 3.59444C16.3426 3.36468 16.2087 3.1548 16.038 2.97682C15.8672 2.79885 15.663 2.65626 15.4371 2.55723C15.2111 2.45819 14.9679 2.40467 14.7212 2.3997V2.40351Z" fill="white"/>
<path d="M49.9908 24.5751C49.9908 21.1475 49.9956 17.7209 49.9841 14.2933C49.9758 14.1285 50.0047 13.9639 50.0687 13.8117C50.1327 13.6595 50.2301 13.5236 50.3537 13.4142C51.4375 12.3896 52.7405 11.7879 54.1565 11.3966C55.7726 10.9528 57.4116 10.7844 59.0794 11.058C60.7472 11.3316 61.9516 12.2672 62.8582 13.6552C63.8156 15.1227 64.2493 16.7556 64.3901 18.4757C64.5682 20.5688 64.3977 22.6073 63.4327 24.5292C61.9363 27.5148 59.2441 28.6073 56.1057 28.0505C55.0909 27.8707 54.1546 27.4718 53.2603 26.9686C52.751 26.6816 52.7108 26.7045 52.7108 27.2737C52.7108 30.1264 52.7108 32.9797 52.7108 35.8336C52.7108 36.4592 52.7108 36.4564 52.1009 36.2364C51.5619 36.045 51.0277 35.826 50.4734 35.6729C50.0713 35.561 49.9688 35.3467 49.9707 34.9516C49.9851 31.812 49.9794 28.6714 49.9794 25.5308L49.9908 24.5751ZM52.7213 19.417C52.7213 21.0576 52.7299 22.6992 52.7146 24.3398C52.7146 24.6842 52.8171 24.9042 53.1196 25.0735C53.6046 25.348 54.1056 25.5933 54.6198 25.8082C55.6912 26.2511 56.8094 26.4319 57.942 26.1746C59.6251 25.7919 60.4667 24.5674 60.9099 23.0014C61.3791 21.3503 61.3446 19.6638 61.2268 17.9763C61.155 16.9384 60.9521 15.9272 60.5232 14.9696C59.8951 13.5663 58.8573 12.7617 57.2805 12.7053C55.8558 12.6546 54.5433 13.0325 53.2795 13.6543C52.8755 13.8532 52.7051 14.1211 52.7108 14.5898C52.7376 16.1989 52.7213 17.8079 52.7213 19.417Z" fill="white"/>
<path d="M81.4662 20.0676C81.4662 22.7289 81.4987 25.3912 81.4528 28.0516C81.4279 29.4511 81.2958 30.8555 80.7826 32.1832C80.2283 33.6258 79.0966 34.5069 77.7582 35.1488C76.2168 35.8911 74.5777 36.2632 72.8755 36.3589C72.5509 36.3771 72.3566 36.3025 72.3096 35.9543C72.2741 35.7663 72.2258 35.5809 72.1651 35.3994C71.964 34.6686 71.9736 34.6609 72.7529 34.5729C73.7844 34.4699 74.8008 34.2494 75.7821 33.9157C77.7065 33.2394 78.7204 31.879 78.8362 29.8443C78.8831 29.0006 78.9377 28.1587 78.9253 27.3131C78.9205 26.9505 78.8113 26.8673 78.4647 27.0098C76.8241 27.6834 75.0762 28.0582 73.3034 28.1166C71.5332 28.1836 70.0215 27.6259 68.7721 26.3622C67.9822 25.5634 67.5629 24.6039 67.559 23.4923C67.5447 19.7309 67.559 15.9694 67.5447 12.2041C67.5447 11.9258 67.6519 11.8052 67.897 11.7258C68.5337 11.5211 69.1751 11.325 69.7946 11.0753C70.2283 10.9003 70.2733 11.0686 70.2733 11.4398C70.2637 13.9098 70.2733 16.3808 70.2733 18.8517C70.2733 20.0466 70.279 21.2433 70.2733 22.4372C70.2618 25.0325 72.2072 26.1135 73.9793 26.257C75.5964 26.388 77.0181 25.8466 78.3834 25.0612C78.6792 24.8909 78.7749 24.6565 78.774 24.3141C78.7625 20.1853 78.774 16.0574 78.7558 11.9296C78.7558 11.4331 78.9032 11.2896 79.3819 11.3231C79.9392 11.3575 80.4981 11.3575 81.0555 11.3231C81.4221 11.3049 81.5102 11.4388 81.5083 11.789C81.4949 14.5469 81.5007 17.3039 81.5007 20.0619L81.4662 20.0676Z" fill="white"/>
<path d="M95.7418 15.0834C95.7418 11.0512 95.7495 7.01905 95.7303 2.98687C95.7303 2.53439 95.8634 2.33255 96.2981 2.23211C96.8083 2.11444 97.3024 1.92406 97.804 1.76813C98.4321 1.57681 98.433 1.57682 98.433 2.21584C98.433 5.57806 98.433 8.9406 98.433 12.3035C98.433 12.534 98.3115 12.8478 98.5144 12.9798C98.7442 13.1281 98.9319 12.8325 99.1233 12.7148C100.797 11.6855 102.61 11.1737 104.58 11.2311C106.886 11.2999 108.712 12.8573 109.149 15.114C109.237 15.5516 109.281 15.9966 109.282 16.4428C109.282 20.0607 109.273 23.6777 109.293 27.2957C109.293 27.7367 109.151 27.8419 108.745 27.8209C108.171 27.7887 107.596 27.7887 107.022 27.8209C106.615 27.8457 106.512 27.7051 106.513 27.31C106.528 23.98 106.519 20.649 106.525 17.3181C106.525 16.6762 106.48 16.0448 106.274 15.4326C105.59 13.4026 103.988 12.6134 101.881 13.2735C100.732 13.6341 99.7006 14.2358 98.7011 14.8997C98.4216 15.0853 98.4311 15.3379 98.4311 15.6124C98.4311 19.4848 98.4206 23.3611 98.4445 27.2297C98.4445 27.7395 98.2942 27.8591 97.8241 27.8228C97.2988 27.7874 96.7717 27.7874 96.2464 27.8228C95.8567 27.8457 95.7274 27.7348 95.7284 27.3234C95.7437 23.2434 95.738 19.1634 95.738 15.0844L95.7418 15.0834Z" fill="white"/>
<path d="M127.145 19.1704C127.145 21.3343 126.698 23.1882 125.632 24.89C123.084 28.9653 117.618 28.8189 115.078 26.7631C113.529 25.5109 112.596 23.877 112.183 21.9532C111.663 19.5243 111.713 17.1251 112.933 14.8895C114.502 12.0139 116.961 10.6803 120.237 10.9558C123.271 11.2103 125.264 12.8949 126.46 15.6184C126.666 16.0849 126.821 16.5725 126.921 17.0725C127.078 17.8206 127.176 18.5859 127.145 19.1704ZM114.879 19.3167C114.836 20.8713 115.062 22.4382 115.752 23.9085C116.238 24.9474 116.91 25.862 118.049 26.2159C120.361 26.9382 122.624 26.1777 123.577 23.4733C123.995 22.2871 124.128 21.054 124.159 19.8113C124.202 18.1573 124.046 16.532 123.226 15.0425C122.405 13.5531 121.109 12.7304 119.416 12.7629C117.693 12.7964 116.379 13.6124 115.613 15.2071C114.989 16.4918 114.852 17.8608 114.879 19.3167Z" fill="white"/>
<path d="M129.729 20.7218C129.729 18.5215 129.734 16.3213 129.722 14.1211C129.71 13.9732 129.74 13.8249 129.807 13.6929C129.875 13.5608 129.978 13.4501 130.105 13.373C132.604 11.6128 135.361 10.7413 138.426 10.9642C139.833 11.0666 141.098 11.5573 142.098 12.5905C142.728 13.2438 143.114 14.0254 143.116 14.9428C143.125 19.0859 143.116 23.23 143.131 27.3789C143.131 27.707 143.035 27.8304 142.695 27.8161C142.073 27.7912 141.45 27.7893 140.829 27.8161C140.468 27.8324 140.418 27.6841 140.419 27.3694C140.43 23.8152 140.433 20.2613 140.428 16.7078C140.422 14.542 139.375 13.1683 137.405 12.7684C136.524 12.5965 135.615 12.6332 134.751 12.8755C134.081 13.0544 133.472 13.3538 132.868 13.681C132.56 13.8475 132.454 14.057 132.457 14.4023C132.471 16.4744 132.465 18.5464 132.464 20.6204C132.464 22.8512 132.452 25.0821 132.464 27.3167C132.464 27.7224 132.34 27.8419 131.946 27.8209C131.372 27.7902 130.797 27.7902 130.223 27.8209C129.83 27.8419 129.706 27.7252 129.71 27.3187C129.739 25.1203 129.729 22.9211 129.729 20.7218Z" fill="white"/>
<path d="M86.5193 18.9473C86.5193 17.1459 86.5078 15.3446 86.527 13.5433C86.527 13.1186 86.3843 12.9531 85.9727 13.0057C85.9089 13.0095 85.8449 13.0095 85.7812 13.0057C84.5145 13.0057 84.4044 12.8698 84.5978 11.5966C84.6304 11.3823 84.7395 11.3364 84.9195 11.3373C85.2699 11.3373 85.6232 11.3144 85.9727 11.3431C86.3863 11.3775 86.5356 11.2369 86.527 10.8083C86.5021 9.59722 86.527 8.38517 86.5107 7.17313C86.5107 6.8517 86.6065 6.66899 86.9109 6.56759C87.5466 6.36 88.1804 6.14571 88.8046 5.90656C89.1589 5.77072 89.2431 5.86925 89.2393 6.22894C89.2249 7.74328 89.246 9.25762 89.2259 10.772C89.2202 11.211 89.3628 11.3641 89.8003 11.3459C90.5327 11.3144 91.268 11.3459 92.0024 11.3287C92.2896 11.323 92.3853 11.4301 92.3939 11.7181C92.437 13.0066 92.4447 13.0057 91.1809 13.0047C90.6553 13.0047 90.1278 13.0047 89.6022 13.0047C89.3456 13.0047 89.2192 13.1004 89.2249 13.373C89.2383 16.8953 89.2048 20.4186 89.2757 23.9399C89.3121 25.7498 90.009 26.4166 91.8042 26.5955C92.2829 26.6433 92.4226 26.782 92.3997 27.2546C92.3604 28.0907 92.3891 28.0945 91.5591 28.0897C90.4466 28.083 89.3571 27.9424 88.3815 27.3637C87.0411 26.5697 86.5145 25.3347 86.5165 23.8241C86.5197 22.1985 86.5206 20.5729 86.5193 18.9473Z" fill="white"/>
</svg>
