<svg width="126" height="40" viewBox="0 0 126 40" fill="none" xmlns="http://www.w3.org/2000/svg">
<g clip-path="url(#clip0_39_755)">
<path d="M8.4858 33.2065C8.46279 31.3318 8.72834 29.6882 9.10702 28.0573C9.17125 27.7831 9.20289 27.6287 8.8338 27.5176C6.88576 26.9278 5.02497 26.1089 3.33578 24.9431C2.18537 24.1507 1.15766 23.2306 0.499051 21.9182C-0.373345 20.1743 -0.050271 18.6142 1.05413 17.1446C2.11538 15.729 3.58024 14.8295 5.11509 14.0578C6.27622 13.4603 7.49236 12.9825 8.7456 12.6314C9.14057 12.5243 9.22494 12.3601 9.11948 11.9433C8.61522 9.94477 8.37267 7.90299 8.50689 5.84254C8.60276 4.32767 8.86256 2.82754 9.81452 1.56925C10.7368 0.350276 11.9639 -0.0979911 13.4211 0.0602788C15.9692 0.334548 18.0486 1.65477 20.012 3.21388C20.5968 3.67886 21.1518 4.18513 21.6973 4.69827C21.8891 4.88112 22.0079 4.88702 22.1959 4.70909C23.0283 3.90071 23.9147 3.15277 24.8485 2.4707C26.3939 1.37657 28.0006 0.40631 29.8979 0.088787C32.5438 -0.353582 34.164 0.886035 34.9108 3.36232C35.4965 5.30481 35.4965 7.29449 35.2463 9.30186C35.1294 10.2436 34.9837 11.1696 34.7814 12.0967C34.7018 12.4594 34.8293 12.5823 35.1313 12.6609C36.5597 13.0335 37.9115 13.6233 39.2133 14.3124C40.5152 15.0015 41.7059 15.8342 42.678 16.9666C44.3528 18.9327 44.372 21.1112 42.5217 23.1736C40.9879 24.8841 39.035 25.9261 36.9614 26.7627C36.3977 26.9897 35.8254 27.2041 35.2435 27.3771C34.8868 27.4832 34.812 27.6287 34.8974 28.0042C35.2991 29.7904 35.5742 31.6032 35.4726 33.4395C35.3767 35.2001 35.1562 36.9519 34.072 38.4284C33.2369 39.5648 32.1067 40.0524 30.7281 39.9915C28.364 39.8902 26.4332 38.7322 24.5897 37.3559C23.7837 36.758 23.0182 36.1047 22.2984 35.4007C22.0607 35.1667 21.938 35.2227 21.7299 35.4233C20.2919 36.8162 18.7178 38.0283 16.9365 38.9327C15.5455 39.6386 14.0835 40.1055 12.5113 39.9669C10.8413 39.8194 9.78385 38.7981 9.15591 37.2773C8.597 35.9168 8.44841 34.4786 8.4858 33.2065ZM24.5561 29.1672H19.4435C20.1836 30.1955 20.9601 31.0733 21.6887 31.9915C21.9897 32.3709 22.168 32.2146 22.3799 31.9462C23.1047 31.0196 23.8269 30.0909 24.5465 29.1603L24.5561 29.1672ZM21.8421 27.2306C23.0452 27.3181 24.2254 27.1893 25.4084 27.1608C25.6912 27.1539 25.9615 27.1018 26.1456 26.8128C27.4823 24.7364 28.6934 22.5778 29.7723 20.3493C29.8345 20.2405 29.8672 20.1166 29.8672 19.9905C29.8672 19.8644 29.8345 19.7405 29.7723 19.6317C28.7628 17.5732 27.6277 15.5914 26.4351 13.6351C26.0689 13.0355 25.6231 12.8379 25.0105 12.8172C22.98 12.7504 20.9496 12.7189 18.921 12.83C18.4541 12.8565 17.9623 12.83 17.621 13.3903C16.3633 15.4547 15.1544 17.5506 14.0864 19.728C14.0397 19.8067 14.0142 19.8966 14.0125 19.9887C14.0108 20.0807 14.033 20.1716 14.0768 20.252C15.1908 22.5622 16.4543 24.7935 17.8588 26.9308C17.905 27.0113 17.9727 27.0766 18.0539 27.1191C18.135 27.1616 18.2263 27.1794 18.317 27.1706C19.4962 27.1579 20.6754 27.3289 21.8421 27.2306ZM1.85846 20.0475C1.83161 20.2362 1.91789 20.4407 2.00418 20.6501C2.32917 21.4316 2.86028 22.047 3.48533 22.5877C5.20328 24.076 7.21459 24.9706 9.33902 25.6469C9.65155 25.7452 9.73687 25.6764 9.82891 25.3766C10.3529 23.666 10.9828 21.9914 11.7146 20.3631C11.7719 20.25 11.8011 20.1242 11.7998 19.9969C11.7984 19.8695 11.7666 19.7444 11.707 19.6327C10.9683 18.0253 10.3423 16.366 9.8337 14.6673C9.74934 14.3871 9.64196 14.3724 9.41572 14.4442C8.61522 14.7066 7.81376 14.9642 7.03724 15.2974C5.48801 15.962 4.03082 16.7789 2.85069 18.0283C2.33108 18.5739 1.87475 19.1765 1.85846 20.0475ZM33.4996 6.93371C33.5302 6.4668 33.5089 5.99783 33.4363 5.53583C33.3759 5.04041 33.2749 4.5511 33.1344 4.07306C32.6368 2.48446 31.984 1.82287 30.5373 1.95264C30.0176 1.99852 29.5072 2.1224 29.0226 2.32029C26.9586 3.16669 25.2176 4.5056 23.6089 6.04799C23.3952 6.25246 23.3511 6.38223 23.5716 6.6329C24.7137 7.92102 25.7764 9.28091 26.7534 10.7047C26.8331 10.8334 26.9421 10.9402 27.071 11.0161C27.2 11.092 27.3449 11.1346 27.4935 11.1402C29.1663 11.2908 30.8273 11.5568 32.4652 11.9364C32.7528 12.0033 32.8957 11.9807 32.9637 11.6415C33.2657 10.1257 33.5313 8.598 33.4996 6.93371ZM10.3897 33.1367C10.3281 34.2049 10.4775 35.2749 10.8288 36.2824C11.3379 37.7 12.1834 38.2348 13.5936 38.0264C14.3433 37.9026 15.0713 37.6671 15.7545 37.3274C17.4053 36.541 18.8501 35.4596 20.1932 34.2122C20.5306 33.8966 20.7272 33.7295 20.3427 33.3127C19.1887 32.0573 18.1289 30.7142 17.1724 29.295C17.1035 29.1858 17.0101 29.0952 16.9 29.0307C16.7899 28.9662 16.6663 28.9298 16.5396 28.9244C14.814 28.8025 13.099 28.5541 11.4078 28.1812C11.0656 28.1055 10.9822 28.1989 10.9285 28.4663C10.6409 29.99 10.3389 31.5127 10.3897 33.1367ZM33.5993 32.8212C33.5725 31.3191 33.352 29.8219 33.0481 28.3355C32.9877 28.0406 32.8477 28.0288 32.5745 28.0957C31.054 28.4653 29.5067 28.6737 27.9556 28.8585C27.5961 28.9008 27.1608 28.7602 26.8608 29.2006C25.8638 30.6752 24.8188 32.1065 23.6118 33.409C23.4201 33.6194 23.4201 33.7786 23.6463 33.9988C24.2266 34.5736 24.842 35.1098 25.4889 35.6041C26.8675 36.6707 28.3161 37.6381 30.0436 37.9635C31.449 38.2308 32.3272 38.0175 32.958 36.5203C33.4574 35.3525 33.5763 34.106 33.5993 32.8212ZM10.3821 7.07822C10.3533 8.45448 10.6428 10.0165 10.9333 11.5747C10.9975 11.9187 11.1509 11.9866 11.4932 11.9118C13.1229 11.5589 14.7584 11.266 16.4208 11.1362C16.5711 11.1275 16.7173 11.0828 16.8478 11.0058C16.9783 10.9289 17.0894 10.8217 17.1724 10.6929C18.1771 9.26746 19.222 7.87252 20.4156 6.60439C20.6361 6.36945 20.5738 6.23575 20.3744 6.0647C20.0388 5.77765 19.7186 5.46996 19.3754 5.19176C17.5817 3.73587 15.7478 2.37731 13.3981 2.00474C12.4749 1.85826 11.52 2.24657 11.1078 3.08608C10.5211 4.2854 10.3782 5.55254 10.3821 7.07822ZM42.0309 20.079C42.0223 19.266 41.3598 18.2289 40.5833 17.5751C38.8203 16.0917 36.7745 15.1991 34.6251 14.5031C34.2666 14.3871 34.1525 14.513 34.0499 14.8325C33.5269 16.4736 32.9107 18.082 32.2044 19.6494C32.0827 19.9227 32.1086 20.1153 32.2294 20.369C32.964 21.9416 33.6018 23.5599 34.1391 25.2144C34.2464 25.5398 34.3164 25.6538 34.6711 25.5348C36.8464 24.8035 38.9305 23.8902 40.6744 22.3262C41.3828 21.6951 41.9446 20.9391 42.0309 20.079ZM31.0003 22.1925C30.2133 23.7152 29.4291 25.1416 28.5826 26.5366C28.5413 26.6044 28.4944 26.7086 28.5174 26.7686C28.5624 26.8855 28.6928 26.8521 28.7839 26.8354C29.8729 26.6388 30.9725 26.4953 32.0539 26.2456C32.3732 26.1719 32.4374 26.049 32.3291 25.7639C31.8919 24.596 31.4596 23.4272 31.0003 22.1925ZM12.9599 22.3095C12.4505 23.5112 12.0081 24.7417 11.6351 25.9949C11.6025 26.104 11.5574 26.2171 11.7453 26.2623C12.9911 26.5577 14.256 26.7607 15.5302 26.8698C14.6156 25.35 13.7662 23.9099 12.9599 22.3095ZM15.4937 13.2026C14.1938 13.2812 13.0069 13.586 11.8076 13.8032C11.5632 13.8475 11.6159 14.0391 11.6724 14.2131C11.8929 14.8452 12.1067 15.4803 12.3358 16.1094C12.518 16.6127 12.658 17.1357 12.983 17.6449C13.7825 16.1124 14.5849 14.6634 15.4937 13.2026ZM30.9658 17.7246C31.4452 16.4967 31.8986 15.3653 32.2505 14.1984C32.2831 14.0893 32.4508 13.9035 32.1671 13.8475C30.9428 13.5919 29.7186 13.3323 28.3947 13.1868C29.3275 14.685 30.1385 16.1655 30.9649 17.7226L30.9658 17.7246ZM19.3888 10.9317C21.148 10.7627 22.8046 10.7922 24.5561 10.919C23.7297 9.84745 23.004 8.85458 22.1594 7.96984C22.0147 7.81747 21.9159 7.75259 21.7606 7.9433C20.9841 8.89095 20.1702 9.80715 19.3888 10.9317Z" fill="white"/>
<path d="M70.0486 27.6453C69.0171 27.6453 68.1073 27.6404 67.1975 27.6453C66.9866 27.6453 66.9032 27.5146 66.814 27.3661C65.2581 24.88 63.6964 22.3978 62.1529 19.9029C61.9833 19.6276 61.8049 19.5421 61.5039 19.548C60.5548 19.5667 59.6057 19.5785 58.6586 19.548C58.2128 19.5322 58.0594 19.6355 58.0661 20.1319C58.0939 22.4568 58.0661 24.7837 58.0882 27.1115C58.0882 27.5431 57.9769 27.6846 57.5532 27.6561C56.9972 27.6188 56.4364 27.6394 55.8774 27.6512C55.6416 27.6561 55.5237 27.5814 55.5553 27.3248C55.5596 27.2558 55.5596 27.1865 55.5553 27.1174C55.5553 20.6949 55.5515 14.2723 55.5438 7.84977C55.5438 7.37595 55.6742 7.28354 56.1085 7.28747C58.8014 7.30812 61.4953 7.2629 64.1873 7.31205C65.6636 7.33859 67.0096 7.88221 68.0651 8.95569C69.5156 10.4303 69.9575 12.2636 69.7188 14.328C69.552 15.7692 69.0046 16.9665 67.9625 17.9437C67.1649 18.6917 66.2168 19.1066 65.1728 19.2894C64.7836 19.3583 64.7299 19.4271 64.9552 19.7721C66.3999 21.983 67.8312 24.2037 69.2625 26.4224C69.5041 26.794 69.7399 27.1675 70.0486 27.6453ZM58.0747 13.4502C58.0747 14.5777 58.0862 15.7043 58.0671 16.8318C58.0613 17.1788 58.1342 17.3155 58.5081 17.3096C60.0132 17.2889 61.5193 17.3165 63.0253 17.2968C64.3732 17.2791 65.6138 16.9331 66.4296 15.7338C67.3049 14.4558 67.3988 13.0619 66.7364 11.6659C66.0941 10.3123 64.9475 9.68315 63.5162 9.64972C61.8452 9.61138 60.1723 9.64972 58.5004 9.63891C58.1744 9.63891 58.0613 9.7205 58.0671 10.0695C58.0872 11.196 58.0747 12.3236 58.0747 13.4502Z" fill="white"/>
<path d="M80.0276 21.0813C78.2665 21.0813 76.5054 21.0961 74.7443 21.0715C74.2908 21.0656 74.1988 21.2081 74.2793 21.6436C74.9504 25.272 78.2099 26.7879 81.3611 25.6741C82.1156 25.4077 82.8231 25.0508 83.3973 24.46C83.6504 24.1995 83.8613 24.1995 84.0684 24.5357C84.2713 24.8531 84.4922 25.1581 84.7299 25.449C84.8938 25.6554 84.8679 25.796 84.6733 25.969C83.2909 27.2037 81.6832 27.8368 79.8579 27.9793C78.324 28.0953 76.8697 27.8643 75.5103 27.1241C73.5134 26.0378 72.3553 24.2909 71.9488 22.0526C71.6037 20.1494 71.735 18.261 72.5988 16.4925C73.9313 13.7675 76.6003 12.2113 79.5578 12.5082C82.9132 12.8454 85.0079 15.1329 85.6445 18.4202C85.7709 19.1338 85.8351 19.8576 85.8362 20.5829C85.8439 21.0174 85.6953 21.0931 85.3147 21.0892C83.5498 21.0715 81.7887 21.0813 80.0276 21.0813ZM78.8992 19.3295C80.2711 19.3295 81.642 19.3177 83.0129 19.3364C83.4203 19.3423 83.5641 19.2784 83.5009 18.7898C83.149 16.0678 81.0946 14.086 78.0364 14.5519C75.7643 14.898 74.4653 17.0213 74.2515 18.9658C74.217 19.2814 74.3656 19.3364 74.635 19.3344C76.0558 19.3246 77.4775 19.3295 78.8992 19.3295Z" fill="white"/>
<path d="M98.3105 20.0483C98.3105 19.0839 98.3795 18.211 98.2951 17.3538C98.1398 15.7711 96.8428 14.6779 95.2446 14.5934C93.4232 14.4951 91.849 15.0013 90.5883 16.3933C90.4273 16.5713 90.3007 16.6774 90.1406 16.3717C90.0246 16.1436 89.8444 15.9519 89.7073 15.7337C89.1177 14.8018 89.0362 15.08 89.8569 14.3496C91.6228 12.7816 93.7251 12.2931 96.025 12.5604C97.0796 12.6833 98.068 12.9664 98.9279 13.628C99.9997 14.4518 100.558 15.5823 100.574 16.9222C100.614 20.3412 100.583 23.7612 100.595 27.1812C100.595 27.5332 100.521 27.6787 100.151 27.6541C99.6778 27.6226 99.2028 27.6226 98.7294 27.6541C98.3766 27.6767 98.2875 27.5302 98.3115 27.2029C98.3335 26.8942 98.3115 26.5826 98.3115 26.2621C98.0018 26.2768 97.8647 26.4852 97.6854 26.6347C95.8438 28.1653 92.6946 28.5378 90.6296 27.1518C88.948 26.0242 88.3422 24.3717 88.555 22.4194C88.7688 20.4533 89.8847 19.0859 91.7311 18.5314C94.0319 17.8433 96.2004 18.1648 98.0488 19.8792C98.1324 19.9412 98.2198 19.9977 98.3105 20.0483ZM98.3306 23.1026C98.3153 22.8604 98.3153 22.6174 98.3306 22.3751C98.3968 21.8492 98.1389 21.5199 97.7813 21.1886C96.6788 20.1604 95.3501 19.8979 93.9341 19.9746C93.0713 20.0217 92.2708 20.3629 91.6927 21.0313C90.1157 22.8637 90.9785 25.5464 93.31 26.1323C94.4155 26.4132 95.581 26.3027 96.6175 25.8187C97.7123 25.3213 98.6067 24.6135 98.3306 23.1547C98.3291 23.137 98.3291 23.1193 98.3306 23.1016V23.1026Z" fill="white"/>
<path d="M104.163 20.2045C104.172 17.9897 104.826 16.0315 106.386 14.4488C107.367 13.4573 108.63 12.8117 109.993 12.6056C111.623 12.3372 113.209 12.4817 114.703 13.2937C115.423 13.687 115.949 14.2837 116.51 14.8607C116.634 14.9885 116.691 15.1143 116.536 15.2539C116.122 15.6324 115.705 16.0089 115.29 16.3903C115.138 16.5319 115.037 16.4886 114.92 16.3382C113.717 14.7486 112.097 14.3417 110.277 14.7703C108.483 15.193 107.357 16.4129 106.846 18.2188C106.265 20.2704 106.493 22.204 107.678 23.9932C109.127 26.1834 112.627 26.5353 114.457 24.6695C114.681 24.4414 114.892 24.0354 115.128 24.0237C115.364 24.0119 115.621 24.3834 115.867 24.5899C116.743 25.3272 116.756 25.4815 115.94 26.2807C114.817 27.3788 113.462 27.89 111.92 27.9794C110.107 28.0846 108.443 27.7061 106.983 26.5609C105.415 25.3301 104.579 23.6678 104.253 21.7007C104.183 21.2054 104.153 20.705 104.163 20.2045Z" fill="white"/>
<path d="M120.122 20.0797C120.122 18.5353 120.113 16.99 120.13 15.4456C120.13 15.0927 120.058 14.9541 119.688 14.9757C119.182 15.0091 118.672 14.9757 118.164 14.9895C117.893 14.9983 117.762 14.9384 117.78 14.6228C117.804 14.1382 117.8 13.6506 117.78 13.165C117.769 12.8838 117.876 12.8081 118.134 12.816C118.676 12.8317 119.218 12.8052 119.764 12.8258C120.058 12.8376 120.137 12.7275 120.133 12.4385C120.119 11.3798 120.14 10.32 120.12 9.26228C120.115 8.92805 120.197 8.80418 120.539 8.82286C121.063 8.85137 121.594 8.84547 122.114 8.82286C122.408 8.81107 122.485 8.92117 122.481 9.20821C122.466 10.267 122.487 11.3267 122.468 12.3844C122.463 12.7255 122.564 12.8386 122.899 12.8268C123.592 12.8022 124.288 12.8327 124.982 12.813C125.296 12.8042 125.4 12.9202 125.387 13.2348C125.364 13.6857 125.364 14.1375 125.387 14.5884C125.406 14.9226 125.273 14.9974 124.975 14.9895C124.264 14.9708 123.553 14.9954 122.841 14.9767C122.554 14.9698 122.467 15.0612 122.468 15.3581C122.478 18.3436 122.468 21.3291 122.479 24.3146C122.485 25.5759 123.525 26.2296 124.66 25.7145C124.815 25.6469 124.964 25.5632 125.103 25.4648C125.329 25.2967 125.468 25.3616 125.559 25.6093C125.65 25.857 125.734 26.093 125.823 26.3348C126.127 27.1556 126.116 27.1822 125.339 27.5803C124.362 28.0847 123.233 28.1833 122.186 27.8555C120.697 27.4122 120.215 26.381 120.142 24.7098C120.065 23.1723 120.122 21.627 120.122 20.0797Z" fill="white"/>
<path d="M21.9441 24.0395C19.6126 23.9412 18.003 22.3132 17.9781 20.0031C17.9522 17.6713 19.6222 15.9245 21.9278 15.9009C24.1376 15.8782 25.9226 17.5779 25.9198 19.9628C25.9159 22.3044 24.266 23.95 21.9441 24.0395Z" fill="white"/>
</g>
<defs>
<clipPath id="clip0_39_755">
<rect width="126" height="40" fill="white"/>
</clipPath>
</defs>
</svg>
