<svg width="111" height="46" viewBox="0 0 111 46" fill="none" xmlns="http://www.w3.org/2000/svg">
<g clip-path="url(#clip0_39_738)">
<path d="M22.4308 45.7368C18.0558 46.2993 13.2573 45.7525 8.74261 45.9359C6.4836 46.0923 9.07514 43.1445 9.43982 42.2916C11.3796 39.0366 12.7995 35.2899 15.3722 32.5029C17.608 36.1112 19.5145 40.074 21.6904 43.7723C22.024 44.3934 22.4995 44.9604 22.4308 45.7368Z" fill="white"/>
<path d="M15.4265 32.9092C16.9517 28.4255 20.1574 24.2659 22.2911 19.942C22.6237 19.9285 22.7157 20.1513 22.8298 20.3549C25.0512 24.3341 27.2717 28.3145 29.4916 32.296C30.2919 33.2557 28.1404 33.357 27.5618 33.366C24.14 33.366 20.7182 33.366 17.2965 33.3592C16.6425 33.357 15.973 33.3873 15.4265 32.9092Z" fill="white"/>
<path d="M22.1925 0.064209C24.8727 3.64326 26.757 8.22593 29.1613 12.1448C29.7155 12.9898 29.4495 13.2418 28.4286 13.118C23.9383 13.2159 19.4125 12.938 14.9388 13.2305C14.8797 13.1965 14.8313 13.146 14.7995 13.085C14.7677 13.024 14.7537 12.955 14.7592 12.8862C17.3563 8.70074 19.3194 4.02806 22.1925 0.064209Z" fill="white"/>
<path d="M14.8934 12.9188L14.941 13.2294C14.481 13.4623 13.9855 13.6637 13.4369 13.631C9.67589 13.6491 5.91383 13.6772 2.15398 13.6052C1.56539 13.5939 0.639836 13.7942 0.738488 12.6319C2.92213 8.47568 5.22659 4.38919 7.5776 0.329703C8.24267 -0.0348405 8.40007 0.572734 8.60292 0.936152C10.6136 4.52646 12.6354 8.11001 14.6384 11.7048C14.8479 12.0761 15.043 12.4643 14.8934 12.9188Z" fill="white"/>
<path d="M14.8933 12.9188C12.6565 8.89083 10.4204 4.86173 8.18503 0.831497C8.04315 0.573842 7.92232 0.327428 7.58203 0.329678C7.65741 0.0416435 7.88797 -0.0011039 8.12517 2.12341e-05C12.8154 0.0187735 17.5052 0.040145 22.1947 0.0641479C20.4345 4.11463 17.9371 7.82758 15.8588 11.7307C15.5994 12.1886 15.3733 12.6544 14.8933 12.9188Z" fill="white"/>
<path d="M0.736275 12.6318C0.84712 13.4779 1.51219 13.1618 1.95557 13.1651C6.27186 13.2113 10.5892 13.1269 14.9055 13.2135C13.5155 16.1164 11.8152 18.8392 10.2855 21.67C9.50186 23.1181 8.6794 24.5448 7.87466 25.9816C7.39249 25.9039 7.34483 25.5259 7.19963 25.2671C5.09432 21.5129 2.99935 17.7534 0.914733 13.9887C0.694152 13.5859 0.124413 13.1708 0.736275 12.6318Z" fill="white"/>
<path d="M15.0896 32.8179C12.6344 37.0934 10.4076 41.5208 7.82044 45.7108C5.43507 42.098 3.56291 38.1488 1.37372 34.4054C1.12876 33.9633 0.799545 33.5436 0.718628 32.8179H15.0896Z" fill="white"/>
<path d="M15.4265 32.9092H29.5925C27.3545 37.2702 24.9968 41.5626 22.4275 45.7357C20.2627 42.0025 18.2154 38.1973 16.0683 34.4574C15.7879 33.9848 15.4398 33.5089 15.4265 32.9092Z" fill="white"/>
<path d="M105.724 22.0763L108.446 16.1874C109.086 15.9488 109.738 16.0973 110.393 16.0748C110.592 16.5249 110.296 16.8096 110.143 17.1223C109.079 19.9059 106.878 22.4105 106.673 25.4416C106.724 26.857 106.686 28.2758 106.686 29.7542H104.757C104.757 28.242 104.757 26.7332 104.757 25.2256C104.757 24.6529 104.731 24.1117 104.456 23.5705C103.362 21.4159 102.313 19.2376 101.196 16.9648C100.804 17.1899 101.024 17.7108 100.587 17.9482H97.3463V29.6496C96.5792 29.8937 95.9552 29.8487 95.2336 29.7047V18.1012C94.0586 17.8143 92.928 18.0945 91.7619 17.8976C91.5402 17.3552 91.6311 16.8017 91.6888 16.1559H102.969L105.724 22.0763Z" fill="white"/>
<path d="M46.6205 17.3891L45.5541 19.0914C43.9103 18.099 40.3677 17.1787 40.0618 19.9139C39.9908 21.7141 42.3729 21.812 43.7141 22.0325C47.5227 22.4432 48.2909 28.3029 44.6895 29.5709C42.0226 30.4485 39.6195 29.9084 37.4137 28.1915C37.6354 27.4658 38.1896 27.1372 38.4623 26.6523C39.0342 26.551 39.2914 26.9741 39.6483 27.1586C40.8676 27.7876 42.1512 27.998 43.4858 27.702C45.4311 27.3578 45.5253 24.5922 43.5257 24.2141C42.7498 24.0206 41.9461 23.9621 41.1669 23.7855C34.2657 21.5329 39.4843 12.3631 46.6205 17.3891Z" fill="white"/>
<path d="M62.9135 16.0769V27.7963H69.2317C69.4533 28.5131 69.3115 29.07 69.3813 29.7215H60.9771V16.1805C61.5523 15.9599 62.1476 16.0871 62.9135 16.0769Z" fill="white"/>
<path d="M88.2427 29.7406V16.167C88.8778 15.9824 89.4697 16.0443 90.1581 16.1186V29.6989C89.5695 29.9352 88.9377 29.8317 88.2427 29.7406Z" fill="white"/>
<path d="M71.5228 16.0884H73.2963V29.7723C72.7074 29.8592 72.1085 29.849 71.5228 29.7419V16.0884Z" fill="white"/>
<path d="M85.5403 20.5607C85.2587 15.5089 80.0723 15.9297 76.3169 16.0681V29.8184C84.2079 30.3877 86.2386 28.7281 85.5403 20.5607ZM83.4874 25.4652C83.2768 28.0598 80.345 28.0474 78.3564 27.7492V18.0855C84.3664 17.4419 83.6991 20.7329 83.4874 25.4652Z" fill="white"/>
<path d="M58.3977 24.4707V21.4069C58.3833 14.7 49.9369 14.0125 48.9826 20.1693C48.8085 22.0174 48.8085 23.8782 48.9826 25.7263C50.2329 32.2296 58.4099 30.9841 58.3922 24.4707H58.3977ZM56.1564 25.5452C55.8239 28.6314 51.2504 28.5031 51.0421 25.4146C50.9567 24.5708 51.0265 23.7101 51.0265 22.8583H51.0188C51.0188 22.1 50.9589 21.336 51.031 20.5844C51.2128 17.3857 55.8361 17.2484 56.1631 20.4404C56.3974 22.1339 56.3952 23.8524 56.1564 25.5452Z" fill="white"/>
</g>
<defs>
<clipPath id="clip0_39_738">
<rect width="110" height="46" fill="white" transform="translate(0.461426)"/>
</clipPath>
</defs>
</svg>
