<svg width="78" height="78" viewBox="0 0 78 78" fill="none" xmlns="http://www.w3.org/2000/svg">
<path d="M31.9124 35.8125H21.9749C19.6124 35.8125 17.7 37.7248 17.7 40.0873V59.2873H31.9124V35.8125V35.8125Z" stroke="white" stroke-width="3" stroke-miterlimit="10" stroke-linecap="round" stroke-linejoin="round"/>
<path d="M41.8547 18.7499H36.1546C33.7921 18.7499 31.8796 20.6624 31.8796 23.0249V59.2501H46.0922V23.0249C46.0922 20.6624 44.2172 18.7499 41.8547 18.7499Z" stroke="white" stroke-width="3" stroke-miterlimit="10" stroke-linecap="round" stroke-linejoin="round"/>
<path d="M56.0554 42.1874H46.1179V59.2501H60.3305V46.4624C60.293 44.0999 58.3804 42.1874 56.0554 42.1874Z" stroke="white" stroke-width="3" stroke-miterlimit="10" stroke-linecap="round" stroke-linejoin="round"/>
<path d="M27.75 76.5H50.25C69 76.5 76.5 69 76.5 50.25V27.75C76.5 9 69 1.5 50.25 1.5H27.75C9 1.5 1.5 9 1.5 27.75V50.25C1.5 69 9 76.5 27.75 76.5Z" stroke="white" stroke-width="3" stroke-linecap="round" stroke-linejoin="round"/>
</svg>
