<svg width="78" height="78" viewBox="0 0 78 78" fill="none" xmlns="http://www.w3.org/2000/svg">
<path d="M34.2115 58.6362C34.0106 59.4399 34.4992 60.2543 35.3029 60.4552C36.1066 60.6561 36.921 60.1675 37.1219 59.3638L34.2115 58.6362ZM43.7886 32.6971C43.9895 31.8934 43.5009 31.079 42.6972 30.8781C41.8935 30.6772 41.0791 31.1658 40.8782 31.9695L43.7886 32.6971ZM52.3334 34.1666C51.5049 34.1666 50.8334 34.8382 50.8334 35.6666C50.8334 36.4951 51.5049 37.1666 52.3334 37.1666V34.1666ZM52.3334 54.1666C51.5049 54.1666 50.8334 54.8382 50.8334 55.6666C50.8334 56.4951 51.5049 57.1666 52.3334 57.1666V54.1666ZM25.6667 37.1666C26.4951 37.1666 27.1667 36.4951 27.1667 35.6666C27.1667 34.8382 26.4951 34.1666 25.6667 34.1666V37.1666ZM25.6667 57.1666C26.4951 57.1666 27.1667 56.4951 27.1667 55.6666C27.1667 54.8382 26.4951 54.1666 25.6667 54.1666V57.1666ZM59 44.1666C58.1716 44.1666 57.5 44.8382 57.5 45.6666C57.5 46.4951 58.1716 47.1666 59 47.1666V44.1666ZM62.3334 47.1666C63.1618 47.1666 63.8334 46.4951 63.8334 45.6666C63.8334 44.8382 63.1618 44.1666 62.3334 44.1666V47.1666ZM19 47.1666C19.8285 47.1666 20.5 46.4951 20.5 45.6666C20.5 44.8382 19.8285 44.1666 19 44.1666V47.1666ZM15.6667 44.1666C14.8383 44.1666 14.1667 44.8382 14.1667 45.6666C14.1667 46.4951 14.8383 47.1666 15.6667 47.1666V44.1666ZM11.4335 73.8501L12.1145 72.5136H12.1145L11.4335 73.8501ZM4.14993 66.5665L5.48644 65.8855L4.14993 66.5665ZM73.8501 66.5665L72.5136 65.8855L73.8501 66.5665ZM66.5665 73.8501L65.8856 72.5136L66.5665 73.8501ZM66.5665 4.14987L65.8856 5.48638L66.5665 4.14987ZM75.5068 19L77.004 18.9086L75.5068 19ZM73.8501 11.4335L72.5136 12.1145V12.1145L73.8501 11.4335ZM11.4335 4.14987L12.1145 5.48638L11.4335 4.14987ZM4.14993 11.4335L5.48644 12.1145L4.14993 11.4335ZM35.6667 59L37.1219 59.3638L43.7886 32.6971L42.3334 32.3333L40.8782 31.9695L34.2115 58.6362L35.6667 59ZM52.3334 35.6666V37.1666H57.6667V35.6666V34.1666H52.3334V35.6666ZM59 37H57.5V54.3333H59H60.5V37H59ZM57.6667 55.6666V54.1666H52.3334V55.6666V57.1666H57.6667V55.6666ZM59 54.3333H57.5C57.5 54.2413 57.5747 54.1666 57.6667 54.1666V55.6666V57.1666C59.2315 57.1666 60.5 55.8981 60.5 54.3333H59ZM57.6667 35.6666V37.1666C57.5747 37.1666 57.5 37.092 57.5 37H59H60.5C60.5 35.4352 59.2315 34.1666 57.6667 34.1666V35.6666ZM25.6667 35.6666V34.1666H20.3334V35.6666V37.1666H25.6667V35.6666ZM19 37H17.5V54.3333H19H20.5V37H19ZM20.3334 55.6666V57.1666H25.6667V55.6666V54.1666H20.3334V55.6666ZM19 54.3333H17.5C17.5 55.8981 18.7686 57.1666 20.3334 57.1666V55.6666V54.1666C20.4254 54.1666 20.5 54.2413 20.5 54.3333H19ZM20.3334 35.6666V34.1666C18.7686 34.1666 17.5 35.4352 17.5 37H19H20.5C20.5 37.092 20.4254 37.1666 20.3334 37.1666V35.6666ZM59 45.6666V47.1666H62.3334V45.6666V44.1666H59V45.6666ZM19 45.6666V44.1666H15.6667V45.6666V47.1666H19V45.6666ZM29 2.33331V3.83331H49V2.33331V0.833313H29V2.33331ZM75.6667 29H74.1667V49H75.6667H77.1667V29H75.6667ZM49 75.6666V74.1666H29V75.6666V77.1666H49V75.6666ZM2.33337 49H3.83337V29H2.33337H0.833374V49H2.33337ZM29 75.6666V74.1666C24.3082 74.1666 20.8795 74.1655 18.1756 73.9445C15.4891 73.7251 13.6504 73.2962 12.1145 72.5136L11.4335 73.8501L10.7525 75.1866C12.7818 76.2206 15.0593 76.6999 17.9313 76.9346C20.7857 77.1678 24.3577 77.1666 29 77.1666V75.6666ZM2.33337 49H0.833374C0.833374 53.6423 0.832207 57.2143 1.06543 60.0688C1.30007 62.9407 1.77944 65.2182 2.81342 67.2475L4.14993 66.5665L5.48644 65.8855C4.70386 64.3496 4.27495 62.5109 4.05546 59.8245C3.83454 57.1205 3.83337 53.6918 3.83337 49H2.33337ZM11.4335 73.8501L12.1145 72.5136C9.26073 71.0595 6.94052 68.7393 5.48644 65.8855L4.14993 66.5665L2.81342 67.2475C4.55512 70.6657 7.33427 73.4449 10.7525 75.1866L11.4335 73.8501ZM75.6667 49H74.1667C74.1667 53.6918 74.1655 57.1205 73.9446 59.8245C73.7251 62.5109 73.2962 64.3496 72.5136 65.8855L73.8501 66.5665L75.1867 67.2475C76.2206 65.2182 76.7 62.9407 76.9346 60.0688C77.1679 57.2143 77.1667 53.6423 77.1667 49H75.6667ZM49 75.6666V77.1666C53.6424 77.1666 57.2144 77.1678 60.0688 76.9346C62.9408 76.6999 65.2182 76.2206 67.2475 75.1866L66.5665 73.8501L65.8856 72.5136C64.3497 73.2962 62.511 73.7251 59.8245 73.9445C57.1206 74.1655 53.6919 74.1666 49 74.1666V75.6666ZM73.8501 66.5665L72.5136 65.8855C71.0596 68.7393 68.7393 71.0595 65.8856 72.5136L66.5665 73.8501L67.2475 75.1866C70.6658 73.4449 73.445 70.6657 75.1867 67.2475L73.8501 66.5665ZM49 2.33331V3.83331C53.6919 3.83331 57.1206 3.83448 59.8245 4.0554C62.511 4.27489 64.3497 4.7038 65.8856 5.48638L66.5665 4.14987L67.2475 2.81336C65.2182 1.77938 62.9408 1.30001 60.0688 1.06536C57.2144 0.832146 53.6424 0.833313 49 0.833313V2.33331ZM75.6667 29H77.1667C77.1667 24.8651 77.1673 21.5837 77.004 18.9086L75.5068 19L74.0096 19.0914C74.1661 21.6543 74.1667 24.8303 74.1667 29H75.6667ZM75.5068 19L77.004 18.9086C76.7998 15.5649 76.3337 13.0037 75.1867 10.7525L73.8501 11.4335L72.5136 12.1145C73.3835 13.8217 73.8146 15.8982 74.0096 19.0914L75.5068 19ZM66.5665 4.14987L65.8856 5.48638C68.7393 6.94046 71.0596 9.26066 72.5136 12.1145L73.8501 11.4335L75.1867 10.7525C73.445 7.33421 70.6658 4.55506 67.2475 2.81336L66.5665 4.14987ZM29 2.33331V0.833313C24.3577 0.833313 20.7857 0.832146 17.9313 1.06536C15.0593 1.30001 12.7818 1.77938 10.7525 2.81336L11.4335 4.14987L12.1145 5.48638C13.6504 4.7038 15.4891 4.27489 18.1756 4.0554C20.8795 3.83448 24.3082 3.83331 29 3.83331V2.33331ZM2.33337 29H3.83337C3.83337 24.8303 3.83401 21.6543 3.9905 19.0914L2.49328 19L0.996073 18.9086C0.832737 21.5837 0.833374 24.8651 0.833374 29H2.33337ZM2.49328 19L3.9905 19.0914C4.18546 15.8982 4.61653 13.8217 5.48644 12.1145L4.14993 11.4335L2.81342 10.7525C1.66639 13.0037 1.20023 15.5649 0.996073 18.9086L2.49328 19ZM11.4335 4.14987L10.7525 2.81336C7.33427 4.55506 4.55512 7.33421 2.81342 10.7525L4.14993 11.4335L5.48644 12.1145C6.94052 9.26066 9.26073 6.94046 12.1145 5.48638L11.4335 4.14987ZM2.49328 19V20.5H75.5068V19V17.5H2.49328V19Z" fill="white"/>
</svg>
