<svg width="96" height="79" viewBox="0 0 96 79" fill="none" xmlns="http://www.w3.org/2000/svg">
<path d="M28.7411 21.5891V31.3836M28.7411 31.3836V41.1781M28.7411 31.3836H38.3705M28.7411 31.3836H19.1116M76.8884 31.3836L57.6295 31.3836M26.7879 69.6377L32.8904 57.2235C33.2982 56.3939 34.1318 55.8699 35.0436 55.8699H60.9564C61.8682 55.8699 62.7018 56.3939 63.1096 57.2235L69.2121 69.6377C71.0176 73.3107 74.3892 75.93 78.3481 76.7354C87.1046 78.5167 95.0035 71.0488 93.8959 62.0359L88.6266 19.1593C87.4219 9.3564 79.2291 2 69.5164 2H26.4836C16.7709 2 8.5781 9.35641 7.37339 19.1593L2.10414 62.0359C0.99652 71.0488 8.89542 78.5167 17.6519 76.7354C21.6108 75.93 24.9824 73.3107 26.7879 69.6377Z" stroke="white" stroke-width="3" stroke-linecap="round"/>
</svg>
