<svg width="80" height="80" viewBox="0 0 80 80" fill="none" xmlns="http://www.w3.org/2000/svg">
<path d="M66.5 47C70.0899 47 73 43.866 73 40C73 36.134 70.0899 33 66.5 33C62.9101 33 60 36.134 60 40C60 43.866 62.9101 47 66.5 47Z" stroke="white" stroke-width="3" stroke-linecap="round" stroke-linejoin="round"/>
<path d="M66.5 20C70.0899 20 73 17.0899 73 13.5C73 9.91015 70.0899 7 66.5 7C62.9101 7 60 9.91015 60 13.5C60 17.0899 62.9101 20 66.5 20Z" stroke="white" stroke-width="3" stroke-linecap="round" stroke-linejoin="round"/>
<path d="M66.5 73C70.0899 73 73 70.0899 73 66.5C73 62.9101 70.0899 60 66.5 60C62.9101 60 60 62.9101 60 66.5C60 70.0899 62.9101 73 66.5 73Z" stroke="white" stroke-width="3" stroke-linecap="round" stroke-linejoin="round"/>
<path d="M13.5 47C17.0899 47 20 43.866 20 40C20 36.134 17.0899 33 13.5 33C9.91015 33 7 36.134 7 40C7 43.866 9.91015 47 13.5 47Z" stroke="white" stroke-width="3" stroke-linecap="round" stroke-linejoin="round"/>
<path d="M20 40H60" stroke="white" stroke-width="3" stroke-linecap="round" stroke-linejoin="round"/>
<path d="M60 13H46.2857C39.4286 13 36 16.375 36 23.125V56.875C36 63.625 39.4286 67 46.2857 67H60" stroke="white" stroke-width="3" stroke-linecap="round" stroke-linejoin="round"/>
</svg>
