<svg width="84" height="84" viewBox="0 0 84 84" fill="none" xmlns="http://www.w3.org/2000/svg">
<path d="M42 83.5C42.8284 83.5 43.5 82.8284 43.5 82C43.5 81.1716 42.8284 80.5 42 80.5V83.5ZM80.5 42C80.5 42.8284 81.1716 43.5 82 43.5C82.8284 43.5 83.5 42.8284 83.5 42H80.5ZM3.47462 33.2672C2.66822 33.4569 2.16831 34.2645 2.35806 35.0709C2.5478 35.8773 3.35534 36.3772 4.16174 36.1875L3.47462 33.2672ZM27.4545 43.8182L28.8776 44.2925L27.4545 43.8182ZM26.1129 77.6928C25.7424 78.4338 26.0428 79.3348 26.7837 79.7052C27.5247 80.0757 28.4257 79.7754 28.7962 79.0344L26.1129 77.6928ZM16.2201 11.4448C15.4114 11.6245 14.9015 12.4258 15.0812 13.2345C15.2609 14.0432 16.0622 14.5531 16.8709 14.3734L16.2201 11.4448ZM42 16.5455L41.063 17.7168L42 16.5455ZM75.4715 21.4842C76.1908 21.0732 76.4407 20.1569 76.0296 19.4376C75.6186 18.7184 74.7023 18.4685 73.9831 18.8795L75.4715 21.4842ZM80.9393 83.0607C81.5251 83.6464 82.4749 83.6464 83.0607 83.0607C83.6464 82.4749 83.6464 81.5251 83.0607 80.9393L80.9393 83.0607ZM42 82V80.5C20.737 80.5 3.5 63.263 3.5 42H2H0.5C0.5 64.9198 19.0802 83.5 42 83.5V82ZM2 42H3.5C3.5 20.737 20.737 3.5 42 3.5V2V0.5C19.0802 0.5 0.5 19.0802 0.5 42H2ZM42 2V3.5C63.263 3.5 80.5 20.737 80.5 42H82H83.5C83.5 19.0802 64.9198 0.5 42 0.5V2ZM3.81818 34.7273L4.16174 36.1875C9.26858 34.9858 16.0179 34.0486 20.868 34.9304C23.2982 35.3722 24.9658 36.2196 25.8389 37.4176C26.6593 38.5432 27.0324 40.3413 26.0315 43.3438L27.4545 43.8182L28.8776 44.2925C30.0586 40.7496 29.8558 37.8356 28.2633 35.6506C26.7236 33.538 24.1412 32.4763 21.4047 31.9788C15.9214 30.9818 8.67081 32.0446 3.47462 33.2672L3.81818 34.7273ZM27.4545 43.8182L26.0315 43.3438C24.67 47.4284 23.7448 50.3159 23.1904 52.446C22.6413 54.5559 22.4093 56.0845 22.5546 57.3929C22.7077 58.7703 23.2631 59.7495 23.8879 60.7314C24.5105 61.7097 25.2481 62.7593 26.1129 64.489L27.4545 63.8181L28.7962 63.1473C27.8428 61.2407 26.9895 60.0175 26.4189 59.1208C25.8506 58.2277 25.6105 57.7297 25.5363 57.0616C25.4544 56.3245 25.5633 55.2395 26.0937 53.2017C26.6188 51.1841 27.5118 48.3898 28.8776 44.2925L27.4545 43.8182ZM27.4545 63.8181L26.1129 64.489C28.7363 69.7358 27.2016 75.5154 26.1129 77.6928L27.4545 78.3636L28.7962 79.0344C30.1317 76.3633 31.991 69.5369 28.7962 63.1473L27.4545 63.8181ZM16.5455 12.9091L16.8709 14.3734C19.4724 13.7953 23.8726 13.265 28.4864 13.5873C33.1269 13.9114 37.7708 15.083 41.063 17.7168L42 16.5455L42.937 15.3742C38.9565 12.1897 33.6004 10.9371 28.6954 10.5946C23.7638 10.2501 19.0731 10.8108 16.2201 11.4448L16.5455 12.9091ZM42 16.5455L41.063 17.7168C43.1888 19.4174 44.6729 21.323 46.214 23.184C47.7089 24.9891 49.3181 26.8342 51.5886 27.9027C53.9267 29.003 56.7484 29.1928 60.5254 28.2259C64.2695 27.2674 69.0652 25.145 75.4715 21.4842L74.7273 20.1818L73.9831 18.8795C67.6621 22.4915 63.1396 24.4599 59.7814 25.3196C56.4561 26.1709 54.3915 25.9061 52.866 25.1882C51.2728 24.4385 50.0411 23.1019 48.5246 21.2706C47.0544 19.4952 45.3566 17.3098 42.937 15.3742L42 16.5455ZM75.5829 60.6096H74.0829C74.0829 68.0507 68.0507 74.0829 60.6096 74.0829V75.5829V77.0829C69.7076 77.0829 77.0829 69.7076 77.0829 60.6096H75.5829ZM60.6096 75.5829V74.0829C53.1685 74.0829 47.1364 68.0507 47.1364 60.6096H45.6364H44.1364C44.1364 69.7076 51.5117 77.0829 60.6096 77.0829V75.5829ZM45.6364 60.6096H47.1364C47.1364 53.1685 53.1685 47.1364 60.6096 47.1364V45.6364V44.1364C51.5117 44.1364 44.1364 51.5117 44.1364 60.6096H45.6364ZM60.6096 45.6364V47.1364C68.0507 47.1364 74.0829 53.1685 74.0829 60.6096H75.5829H77.0829C77.0829 51.5117 69.7076 44.1364 60.6096 44.1364V45.6364ZM71.3048 71.3048L70.2442 72.3655L80.9393 83.0607L82 82L83.0607 80.9393L72.3655 70.2442L71.3048 71.3048Z" fill="#3B2EB9"/>
</svg>
