<svg width="67" height="84" viewBox="0 0 67 84" fill="none" xmlns="http://www.w3.org/2000/svg">
<path d="M6.29982 81.1281L5.6103 82.4602H5.6103L6.29982 81.1281ZM2.85832 77.6319L1.51752 78.3044H1.51752L2.85832 77.6319ZM50.75 69.2C50.75 68.3716 50.0784 67.7 49.25 67.7C48.4216 67.7 47.75 68.3716 47.75 69.2H50.75ZM48.3917 77.6319L49.7325 78.3044L48.3917 77.6319ZM44.9502 81.1281L45.6397 82.4602L44.9502 81.1281ZM44.9502 2.87195L45.6397 1.53982V1.53982L44.9502 2.87195ZM47.75 14.8C47.75 15.6284 48.4216 16.3 49.25 16.3C50.0784 16.3 50.75 15.6284 50.75 14.8H47.75ZM48.3917 6.36808L47.0509 7.04057V7.04057L48.3917 6.36808ZM6.29982 2.87195L6.98935 4.20407L6.29982 2.87195ZM2.85832 6.36808L4.19912 7.04057L2.85832 6.36808ZM21.6875 12.5C20.8591 12.5 20.1875 13.1716 20.1875 14C20.1875 14.8284 20.8591 15.5 21.6875 15.5V12.5ZM29.5625 15.5C30.3909 15.5 31.0625 14.8284 31.0625 14C31.0625 13.1716 30.3909 12.5 29.5625 12.5V15.5ZM29.5625 40.5C28.7341 40.5 28.0625 41.1716 28.0625 42C28.0625 42.8284 28.7341 43.5 29.5625 43.5V40.5ZM65 43.5C65.8284 43.5 66.5 42.8284 66.5 42C66.5 41.1716 65.8284 40.5 65 40.5V43.5ZM36.3685 55.0523C36.9497 55.6427 37.8994 55.6501 38.4898 55.069C39.0802 54.4878 39.0876 53.5381 38.5065 52.9477L36.3685 55.0523ZM30.0798 46.5255L29.0108 47.5778H29.0108L30.0798 46.5255ZM30.0798 37.4745L29.0108 36.4222L29.0108 36.4222L30.0798 37.4745ZM38.5065 31.0523C39.0876 30.4619 39.0802 29.5122 38.4898 28.931C37.8994 28.3499 36.9497 28.3573 36.3685 28.9477L38.5065 31.0523ZM27.4487 43.2361L28.8774 42.7791L27.4487 43.2361ZM27.4487 40.7639L28.8774 41.2209L27.4487 40.7639ZM14.6 2V3.5H36.65V2V0.5H14.6V2ZM36.65 82V80.5H14.6V82V83.5H36.65V82ZM2 69.2H3.5V14.8H2H0.5V69.2H2ZM14.6 82V80.5C12.3697 80.5 10.7885 80.4988 9.55179 80.3961C8.33327 80.295 7.58286 80.1031 6.98935 79.7959L6.29982 81.1281L5.6103 82.4602C6.70135 83.0249 7.89582 83.269 9.30364 83.3859C10.6932 83.5012 12.4199 83.5 14.6 83.5V82ZM2 69.2H0.5C0.5 71.4158 0.498869 73.1665 0.612118 74.5746C0.726721 75.9996 0.965678 77.2042 1.51752 78.3044L2.85832 77.6319L4.19912 76.9594C3.89265 76.3484 3.70244 75.5772 3.60246 74.3341C3.50113 73.0742 3.5 71.4646 3.5 69.2H2ZM6.29982 81.1281L6.98935 79.7959C5.79166 79.176 4.81354 78.1844 4.19912 76.9594L2.85832 77.6319L1.51752 78.3044C2.41311 80.09 3.84443 81.5461 5.6103 82.4602L6.29982 81.1281ZM49.25 69.2H47.75C47.75 71.4646 47.7489 73.0742 47.6475 74.3341C47.5476 75.5772 47.3574 76.3484 47.0509 76.9594L48.3917 77.6319L49.7325 78.3044C50.2843 77.2042 50.5233 75.9996 50.6379 74.5746C50.7511 73.1665 50.75 71.4158 50.75 69.2H49.25ZM36.65 82V83.5C38.8301 83.5 40.5568 83.5012 41.9464 83.3859C43.3542 83.269 44.5487 83.0249 45.6397 82.4602L44.9502 81.1281L44.2607 79.7959C43.6671 80.1031 42.9167 80.295 41.6982 80.3961C40.4615 80.4988 38.8803 80.5 36.65 80.5V82ZM48.3917 77.6319L47.0509 76.9594C46.4365 78.1844 45.4583 79.176 44.2606 79.7959L44.9502 81.1281L45.6397 82.4602C47.4056 81.5461 48.8369 80.09 49.7325 78.3044L48.3917 77.6319ZM36.65 2V3.5C38.8803 3.5 40.4615 3.5012 41.6982 3.60385C42.9167 3.70499 43.6671 3.89687 44.2607 4.20407L44.9502 2.87195L45.6397 1.53982C44.5487 0.975082 43.3542 0.730983 41.9464 0.614134C40.5568 0.498796 38.8301 0.5 36.65 0.5V2ZM49.25 14.8H50.75C50.75 12.5842 50.7511 10.8335 50.6379 9.42536C50.5233 8.00043 50.2843 6.79583 49.7325 5.69558L48.3917 6.36808L47.0509 7.04057C47.3574 7.65162 47.5476 8.42277 47.6475 9.66587C47.7489 10.9258 47.75 12.5354 47.75 14.8H49.25ZM44.9502 2.87195L44.2607 4.20407C45.4583 4.82401 46.4365 5.81557 47.0509 7.04057L48.3917 6.36808L49.7325 5.69558C48.8369 3.90999 47.4056 2.45386 45.6397 1.53982L44.9502 2.87195ZM14.6 2V0.5C12.4199 0.5 10.6932 0.498796 9.30364 0.614134C7.89582 0.730983 6.70135 0.975082 5.6103 1.53982L6.29982 2.87195L6.98935 4.20407C7.58286 3.89687 8.33327 3.70499 9.55179 3.60385C10.7885 3.5012 12.3697 3.5 14.6 3.5V2ZM2 14.8H3.5C3.5 12.5354 3.50113 10.9258 3.60246 9.66587C3.70244 8.42277 3.89265 7.65162 4.19912 7.04057L2.85832 6.36808L1.51752 5.69558C0.965678 6.79583 0.726721 8.00043 0.612118 9.42536C0.498869 10.8335 0.5 12.5842 0.5 14.8H2ZM6.29982 2.87195L5.6103 1.53982C3.84443 2.45386 2.41311 3.90999 1.51752 5.69558L2.85832 6.36808L4.19912 7.04057C4.81354 5.81557 5.79167 4.82401 6.98935 4.20407L6.29982 2.87195ZM21.6875 14V15.5H29.5625V14V12.5H21.6875V14ZM29.5625 42V43.5H65V42V40.5H29.5625V42ZM37.4375 54L38.5065 52.9477L31.1488 45.4732L30.0798 46.5255L29.0108 47.5778L36.3685 55.0523L37.4375 54ZM30.0798 37.4745L31.1487 38.5268L38.5065 31.0523L37.4375 30L36.3685 28.9477L29.0108 36.4222L30.0798 37.4745ZM30.0798 46.5255L31.1488 45.4732C30.3518 44.6636 29.818 44.1197 29.44 43.6674C29.0737 43.229 28.94 42.9749 28.8774 42.7791L27.4487 43.2361L26.02 43.693C26.2495 44.4105 26.6517 45.0092 27.138 45.5911C27.6127 46.1591 28.2484 46.8033 29.0108 47.5778L30.0798 46.5255ZM30.0798 37.4745L29.0108 36.4222C28.2484 37.1967 27.6127 37.8409 27.138 38.4089C26.6517 38.9908 26.2495 39.5895 26.02 40.307L27.4487 40.7639L28.8774 41.2209C28.94 41.0251 29.0737 40.771 29.44 40.3326C29.8181 39.8803 30.3518 39.3364 31.1488 38.5268L30.0798 37.4745ZM27.4487 43.2361L28.8774 42.7791C28.7155 42.273 28.7155 41.727 28.8774 41.2209L27.4487 40.7639L26.02 40.307C25.668 41.4076 25.668 42.5924 26.02 43.693L27.4487 43.2361Z" fill="white"/>
</svg>
