<svg width="68" height="79" viewBox="0 0 68 79" fill="none" xmlns="http://www.w3.org/2000/svg">
<path d="M28.5533 2.87198L9.83847 9.88534C5.52543 11.498 2 16.5986 2 21.2117V49.0777C2 53.5032 4.92541 59.3165 8.48835 61.9793L24.6153 74.0184C29.9035 77.9939 38.6045 77.9939 43.8927 74.0184L60.0198 61.9793C63.5827 59.3165 66.508 53.5032 66.508 49.0777V21.2117C66.508 16.5986 62.9826 11.498 58.6695 9.88534L39.9547 2.87198C36.7668 1.70934 31.6662 1.70934 28.5533 2.87198Z" stroke="white" stroke-width="3" stroke-linecap="round" stroke-linejoin="round"/>
<path d="M34.2165 35.4636C34.0665 35.4636 33.8789 35.4636 33.7289 35.4636C30.2035 35.351 27.3906 32.4256 27.3906 28.8627C27.3906 25.2247 30.3535 22.2618 33.9915 22.2618C37.6294 22.2618 40.5923 25.2247 40.5923 28.8627C40.5548 32.4632 37.7419 35.351 34.2165 35.4636Z" stroke="white" stroke-width="3" stroke-linecap="round" stroke-linejoin="round"/>
<path d="M26.7531 45.9651C23.1526 48.3654 23.1526 52.3034 26.7531 54.7037C30.8411 57.4415 37.5544 57.4415 41.6424 54.7037C45.2429 52.3034 45.2429 48.3654 41.6424 45.9651C37.5919 43.2273 30.8786 43.2273 26.7531 45.9651Z" stroke="white" stroke-width="3" stroke-linecap="round" stroke-linejoin="round"/>
</svg>
