<svg width="152" height="35" viewBox="0 0 152 35" fill="none" xmlns="http://www.w3.org/2000/svg">
<path d="M65.168 6.4802C65.168 3.01192 62.3269 0.143738 58.7433 0.143738H45.6925C42.1089 0.143738 39.2678 3.01192 39.2678 6.4802V28.157H46.2339V6.4802H65.168Z" fill="#3B2EB9"/>
<path d="M65.1679 28.157H46.2339C46.2339 31.6253 49.0749 34.4273 52.5915 34.4273H65.7787C69.2953 34.4273 72.1364 31.6253 72.1364 28.157V6.48022H65.1703V28.157H65.1679Z" fill="#3B2EB9"/>
<path d="M106.15 6.4802C106.15 3.01192 103.309 0.143738 99.7254 0.143738H86.6747C83.091 0.143738 80.25 3.01192 80.25 6.4802V28.157H87.2161V6.4802H106.15Z" fill="#3B2EB9"/>
<path d="M106.15 28.157H87.2161C87.2161 31.6253 90.0571 34.4273 93.5737 34.4273H106.761C110.277 34.4273 113.119 31.6253 113.119 28.157V6.48022H106.152V28.157H106.15Z" fill="#3B2EB9"/>
<path d="M145.642 0.143738H134.618C131.102 0.143738 128.261 3.01192 128.261 6.4802H145.032V34.4273H151.998V6.4802C151.998 3.01192 149.157 0.143738 145.64 0.143738H145.642Z" fill="#3B2EB9"/>
<path d="M128.263 6.48022H121.23V34.4273H128.263V6.48022Z" fill="#3B2EB9"/>
<path d="M57.2371 15.9609V8.11395H54.1138V15.9632C53.7159 15.9975 53.4036 16.3215 53.4036 16.7208V19.6734C53.4036 20.0955 53.7506 20.4378 54.1786 20.4378H57.1723C57.6003 20.4378 57.9474 20.0955 57.9474 19.6734V16.7208C57.9474 16.3215 57.635 15.9952 57.2371 15.9632V15.9609Z" fill="#3B2EB9"/>
<path d="M7.18125 6.00333H0V34.5345H7.18125V6.00333Z" fill="#3B2EB9"/>
<path d="M24.7018 0H13.4487C9.85804 0 6.95917 2.92751 6.95917 6.46881H24.0794V35H31.1913V6.46881C31.1913 2.92751 28.2924 0 24.7018 0Z" fill="#3B2EB9"/>
</svg>
