<svg width="152" height="35" viewBox="0 0 152 35" fill="none" xmlns="http://www.w3.org/2000/svg">
<path d="M65.168 6.48002C65.168 3.01173 62.3269 0.143555 58.7433 0.143555H45.6925C42.1089 0.143555 39.2678 3.01173 39.2678 6.48002V28.1568H46.2339V6.48002H65.168Z" fill="white"/>
<path d="M65.1679 28.1568H46.2339C46.2339 31.625 49.0749 34.427 52.5915 34.427H65.7787C69.2953 34.427 72.1364 31.625 72.1364 28.1568V6.47998H65.1703V28.1568H65.1679Z" fill="white"/>
<path d="M106.15 6.48002C106.15 3.01173 103.309 0.143555 99.7254 0.143555H86.6747C83.091 0.143555 80.25 3.01173 80.25 6.48002V28.1568H87.2161V6.48002H106.15Z" fill="white"/>
<path d="M106.15 28.1568H87.2161C87.2161 31.625 90.0571 34.427 93.5737 34.427H106.761C110.277 34.427 113.119 31.625 113.119 28.1568V6.47998H106.152V28.1568H106.15Z" fill="white"/>
<path d="M145.642 0.143555H134.618C131.102 0.143555 128.261 3.01173 128.261 6.48002H145.032V34.4271H151.998V6.48002C151.998 3.01173 149.157 0.143555 145.64 0.143555H145.642Z" fill="white"/>
<path d="M128.263 6.47998H121.23V34.427H128.263V6.47998Z" fill="white"/>
<path d="M57.2371 15.9608V8.11377H54.1138V15.963C53.7159 15.9973 53.4036 16.3213 53.4036 16.7206V19.6732C53.4036 20.0953 53.7506 20.4376 54.1786 20.4376H57.1723C57.6003 20.4376 57.9474 20.0953 57.9474 19.6732V16.7206C57.9474 16.3213 57.635 15.995 57.2371 15.963V15.9608Z" fill="white"/>
<path d="M7.18125 6.00342H0V34.5346H7.18125V6.00342Z" fill="white"/>
<path d="M24.7018 0H13.4487C9.85804 0 6.95917 2.92751 6.95917 6.46881H24.0794V35H31.1913V6.46881C31.1913 2.92751 28.2924 0 24.7018 0Z" fill="white"/>
</svg>
