<svg version="1.1" id="Layer_1" xmlns="http://www.w3.org/2000/svg" xmlns:xlink="http://www.w3.org/1999/xlink" x="0px" y="0px"
	 width="100%" viewBox="0 0 711 752" enable-background="new 0 0 711 752" xml:space="preserve">
<path fill="#FFFFFF" opacity="1.000000" stroke="none" 
	d="
M712.000000,631.000000 
	C712.000000,631.750000 712.000000,632.500000 711.628906,633.756531 
	C710.841248,635.112122 710.154846,635.928772 710.048584,636.815063 
	C708.525085,649.524902 704.704224,661.589111 699.352478,673.124390 
	C689.518066,694.321533 675.292053,712.104187 656.444641,725.976746 
	C640.125671,737.988159 622.082581,746.312378 602.045288,749.999390 
	C596.371582,751.043335 590.682190,752.002136 585.000000,753.000000 
	C483.309998,753.000000 381.620026,753.000000 279.272369,752.618286 
	C242.825867,749.792664 212.937668,734.947266 188.510391,708.961548 
	C164.060013,682.951233 152.364487,651.717651 151.653488,616.000000 
	C101.222298,616.000000 51.111149,616.000000 1.000000,616.000000 
	C1.000000,454.643341 1.000000,293.286682 1.350536,131.325592 
	C1.467381,129.147446 1.233690,127.573723 0.999999,126.000000 
	C1.000000,125.555557 1.000000,125.111107 1.360820,124.179428 
	C2.587589,119.233795 3.288847,114.735954 4.345802,110.323318 
	C12.098601,77.956551 28.558474,51.070297 54.967983,30.550821 
	C74.253738,15.566316 95.876778,6.036018 120.225388,2.976167 
	C124.827034,2.397884 129.408966,1.662755 134.000000,1.000000 
	C232.023331,1.000000 330.046661,1.000000 428.731628,1.384222 
	C440.171906,3.510062 451.145508,4.483471 461.687073,7.159033 
	C481.420227,12.167536 498.864136,21.990223 514.016235,35.584927 
	C529.841858,49.783916 543.005432,66.168823 550.457275,86.261787 
	C554.552246,97.303154 557.229736,108.920197 559.861633,120.434181 
	C561.296692,126.712189 561.302368,133.316925 561.975403,140.000000 
	C612.391846,140.000000 662.195923,140.000000 712.000000,140.000000 
	C712.000000,302.356659 712.000000,464.713287 711.675598,627.639832 
	C711.567505,629.139832 711.783752,630.069885 712.000000,631.000000 
M561.000000,295.500000 
	C561.000000,244.079330 561.000000,192.658646 561.000000,141.387527 
	C424.592773,141.387527 288.871857,141.387527 153.254547,141.387527 
	C153.254547,299.377625 153.254547,456.980072 153.254547,614.700867 
	C289.230042,614.700867 424.950775,614.700867 561.000000,614.700867 
	C561.000000,508.434723 561.000000,402.467346 561.000000,295.500000 
z"/>
<path fill="#4C6971" opacity="0" stroke="none" 
	d="
M712.000000,139.531342 
	C662.195923,140.000000 612.391846,140.000000 561.975403,140.000000 
	C561.302368,133.316925 561.296692,126.712189 559.861633,120.434181 
	C557.229736,108.920197 554.552246,97.303154 550.457275,86.261787 
	C543.005432,66.168823 529.841858,49.783916 514.016235,35.584927 
	C498.864136,21.990223 481.420227,12.167536 461.687073,7.159033 
	C451.145508,4.483471 440.171906,3.510062 429.196655,1.384222 
	C523.235474,1.000000 617.470886,1.000000 712.000000,1.000000 
	C712.000000,47.020477 712.000000,93.041580 712.000000,139.531342 
z"/>
<path fill="#4C6971" opacity="0" stroke="none" 
	d="
M1.000000,616.468628 
	C51.111149,616.000000 101.222298,616.000000 151.653488,616.000000 
	C152.364487,651.717651 164.060013,682.951233 188.510391,708.961548 
	C212.937668,734.947266 242.825867,749.792664 278.807373,752.618286 
	C186.431091,753.000000 93.862175,753.000000 1.000000,753.000000 
	C1.000000,707.646179 1.000000,662.291748 1.000000,616.468628 
z"/>
<path fill="#4C6971" opacity="0" stroke="none" 
	d="
M133.531342,1.000000 
	C129.408966,1.662755 124.827034,2.397884 120.225388,2.976167 
	C95.876778,6.036018 74.253738,15.566316 54.967983,30.550821 
	C28.558474,51.070297 12.098601,77.956551 4.345802,110.323318 
	C3.288847,114.735954 2.587589,119.233795 1.360820,123.846092 
	C1.000000,83.070175 1.000000,42.140350 1.000000,1.000000 
	C45.020672,1.000000 89.041679,1.000000 133.531342,1.000000 
z"/>
<path fill="#4C6971" opacity="0" stroke="none" 
	d="
M585.468628,753.000000 
	C590.682190,752.002136 596.371582,751.043335 602.045288,749.999390 
	C622.082581,746.312378 640.125671,737.988159 656.444641,725.976746 
	C675.292053,712.104187 689.518066,694.321533 699.352478,673.124390 
	C704.704224,661.589111 708.525085,649.524902 710.048584,636.815063 
	C710.154846,635.928772 710.841248,635.112122 711.628906,634.131531 
	C712.000000,673.596008 712.000000,713.192017 712.000000,753.000000 
	C669.979370,753.000000 627.958313,753.000000 585.468628,753.000000 
z"/>
<path fill="#4C6971" opacity="0" stroke="none" 
	d="
M0.999999,126.416664 
	C1.233690,127.573723 1.467381,129.147446 1.350536,130.860580 
	C1.000000,129.611115 1.000000,128.222214 0.999999,126.416664 
z"/>
<path fill="#4C6971" opacity="0" stroke="none" 
	d="
M712.000000,630.625000 
	C711.783752,630.069885 711.567505,629.139832 711.675598,628.104858 
	C712.000000,628.750000 712.000000,629.500000 712.000000,630.625000 
z"/>
<path fill="#4C6971" opacity="0" stroke="none" 
	d="
M561.000000,296.000000 
	C561.000000,402.467346 561.000000,508.434723 561.000000,614.700867 
	C424.950775,614.700867 289.230042,614.700867 153.254547,614.700867 
	C153.254547,456.980072 153.254547,299.377625 153.254547,141.387527 
	C288.871857,141.387527 424.592773,141.387527 561.000000,141.387527 
	C561.000000,192.658646 561.000000,244.079330 561.000000,296.000000 
M322.000000,207.500000 
	C322.000000,254.242279 322.000000,300.984558 322.000000,347.999634 
	C320.408661,347.999634 319.430908,347.990662 318.453339,348.001007 
	C309.386658,348.096741 307.000092,350.530762 307.000061,359.676910 
	C306.999939,384.995453 307.181671,410.316162 306.885101,435.631226 
	C306.800323,442.869019 309.726471,446.707672 317.956909,446.845337 
	C343.268402,447.268555 368.591675,447.063110 393.909821,446.960083 
	C401.312012,446.929962 405.919525,442.397644 405.954010,435.025452 
	C406.072479,409.707458 406.258362,384.384460 405.854950,359.072357 
	C405.719269,350.557251 401.610504,347.159332 394.745453,347.975372 
	C393.319153,348.144928 391.855499,348.000000 389.941833,348.000000 
	C389.941833,290.465729 389.941833,233.428223 389.941833,176.301788 
	C367.084137,176.301788 344.702850,176.301788 322.000000,176.301788 
	C322.000000,186.567123 322.000000,196.533569 322.000000,207.500000 
z"/>
<path fill="#FFFFFF" opacity="1.0" stroke="none" 
	d="
M322.000000,207.000000 
	C322.000000,196.533569 322.000000,186.567123 322.000000,176.301788 
	C344.702850,176.301788 367.084137,176.301788 389.941833,176.301788 
	C389.941833,233.428223 389.941833,290.465729 389.941833,348.000000 
	C391.855499,348.000000 393.319153,348.144928 394.745453,347.975372 
	C401.610504,347.159332 405.719269,350.557251 405.854950,359.072357 
	C406.258362,384.384460 406.072479,409.707458 405.954010,435.025452 
	C405.919525,442.397644 401.312012,446.929962 393.909821,446.960083 
	C368.591675,447.063110 343.268402,447.268555 317.956909,446.845337 
	C309.726471,446.707672 306.800323,442.869019 306.885101,435.631226 
	C307.181671,410.316162 306.999939,384.995453 307.000061,359.676910 
	C307.000092,350.530762 309.386658,348.096741 318.453339,348.001007 
	C319.430908,347.990662 320.408661,347.999634 322.000000,347.999634 
	C322.000000,300.984558 322.000000,254.242279 322.000000,207.000000 
z"/>
</svg>